<?xml version="1.0" encoding="utf-8"?>
<!-- Generator: Adobe Illustrator 25.0.0, SVG Export Plug-In . SVG Version: 6.00 Build 0)  -->
<svg version="1.1" id="Laag_1" xmlns="http://www.w3.org/2000/svg" xmlns:xlink="http://www.w3.org/1999/xlink" x="0px" y="0px"
	 viewBox="0 0 761.96 178.49" style="enable-background:new 0 0 761.96 178.49;" xml:space="preserve">
<g>
	<path d="M121.73,110.59v-0.45l-0.23-0.23l-0.23-0.45l-0.23-0.45l-0.23-0.45v-0.68l-0.23-0.45l-0.23-0.23l-0.23-0.45l-0.23-0.45
		c-0.3-0.6-0.76-0.98-1.36-1.13c-0.61-0.15-0.91-0.68-0.91-1.59v-0.45l-0.23-0.23l-0.68-0.91c-0.3-0.3-0.61-0.45-0.91-0.45v-0.68
		l-0.23-0.68l-0.23-0.45l-0.23-0.23c0-0.3-0.08-0.53-0.23-0.68h-0.23c0-0.3-0.08-0.53-0.23-0.68l-0.23-0.45
		c0-0.15-0.08-0.23-0.23-0.23v-0.23l-0.23-0.23l-0.23-0.45l-0.23-0.23c0-0.15-0.08-0.23-0.23-0.23v-0.23
		c-0.15,0-0.23-0.04-0.23-0.11c0-0.07-0.08-0.11-0.23-0.11v-0.23l-0.45-0.45v-0.23l-0.23-0.23l-0.23-0.23V93.8l-0.23-0.45
		l-0.23-0.45v-0.23l-0.23-0.23l-0.23-0.23l-0.23-0.45v-0.45l-0.23-0.23l-0.23-0.23V90.4l-0.23-0.23v-0.45l-0.23-0.23l-0.23-0.45
		l-0.23-0.45c-0.3,0-0.45-0.23-0.45-0.68l-0.23-0.23l-0.23-0.45L108.12,87c0-0.15-0.04-0.23-0.11-0.23c-0.08,0-0.11-0.07-0.11-0.23
		l-0.23-0.23l-0.23-0.45c-0.15,0-0.23-0.04-0.23-0.11c0-0.07-0.08-0.11-0.23-0.11v-0.23c-0.3-0.3-0.53-0.45-0.68-0.45v-0.23
		c0-0.15-0.15-0.38-0.45-0.68c-0.3-0.3-0.61-0.6-0.91-0.91h-0.23c-0.3-0.3-0.45-0.53-0.45-0.68h-0.45l-0.45-0.45
		c0-0.15,0.07-0.23,0.23-0.23l0.68-0.23l0.23-0.23c0-0.15,0.07-0.23,0.23-0.23h0.23l0.23-0.23c0-0.15,0.07-0.23,0.23-0.23h0.23
		l0.23-0.23c0-0.15,0.04-0.23,0.11-0.23c0.07,0,0.11-0.07,0.11-0.23h0.23l0.45-0.23c0-0.15,0.04-0.23,0.11-0.23
		c0.07,0,0.11-0.07,0.11-0.23h0.23c0.15-0.15,0.26-0.3,0.34-0.45c0.07-0.15,0.26-0.23,0.57-0.23v-0.45l0.23-0.45v-0.45
		c0.15-0.15,0.3-0.23,0.45-0.23l0.23-0.23c0-0.15,0.07-0.23,0.23-0.23h0.23c0-0.15,0.07-0.3,0.23-0.45h0.23
		c0,0.15,0.07,0.11,0.23-0.11c0.15-0.23,0.23-0.41,0.23-0.57h0.23c0.15,0,0.23-0.07,0.23-0.23h0.23l0.68-0.45
		c0-0.15,0.04-0.23,0.11-0.23c0.07,0,0.11-0.07,0.11-0.23h0.23l0.68-0.45c0-0.3,0.15-0.45,0.45-0.45l0.23-0.23
		c0.15-0.15,0.3-0.23,0.45-0.23l0.23-0.23c0-0.15,0.04-0.23,0.11-0.23c0.07,0,0.11-0.07,0.11-0.23h0.23l0.45-0.45v-0.23
		c0.15,0,0.23-0.04,0.23-0.11c0-0.07,0.07-0.11,0.23-0.11v-1.13c-0.3-0.45-0.53-0.68-0.68-0.68v-0.23c0-0.3,0.04-0.38,0.11-0.23
		c0.07,0.15,0.26,0.08,0.57-0.23v-0.23l0.23-0.45l0.23-0.23l0.23-0.23V67.5l0.23-0.23l0.23-0.23v-0.68l0.23-0.23l0.23-0.23V65
		l0.23-0.68c0-0.3-0.04-0.57-0.11-0.79c-0.08-0.23-0.11-0.49-0.11-0.79c0-0.45,0.11-1.25,0.34-2.38c0.23-1.13,0.49-2.08,0.79-2.83
		v-0.68l0.23-0.68v-1.59l0.23-0.68l0.23-0.91V51.4l0.23-1.13l0.45-6.8c0.3-0.75,0.45-1.62,0.45-2.61c0-0.98,0-2,0-3.06
		c0-0.6-0.15-1.36-0.45-2.27v-2.95l-0.23-1.13l-0.23-0.91c0-0.3,0.04-0.68,0.11-1.13c0.07-0.45,0.11-0.75,0.11-0.91l-0.23-1.36
		l-0.23-0.68v-0.68l-0.23-0.45c0-0.3-0.08-0.53-0.23-0.68v-0.23l-0.23-0.23l-0.23-0.23V23.5c-0.15,0-0.23-0.15-0.23-0.45h-0.23
		l-0.45-0.68l-0.23-0.23c0-0.15-0.04-0.23-0.11-0.23c-0.08,0-0.11-0.07-0.11-0.23h-0.23c-0.15,0-0.23-0.07-0.23-0.23h-0.23
		c0-0.45-0.45-0.68-1.36-0.68l-0.68-0.23c-0.91-0.3-1.74-0.45-2.49-0.45h-0.45v0.23h-1.36l-0.45,0.23l-0.23,0.23h-0.45l-0.45,0.45
		h-7.94l-3.63,0.23l-2.27,0.23h-2.95l-1.13,0.23h-1.81l-0.91,0.23l-2.49,0.45l-0.45,0.23c-0.3,0-0.68-0.04-1.13-0.11
		c-0.45-0.07-0.91-0.11-1.36-0.11v-0.23l-4.31-0.45h-2.04l-1.36-0.23l-1.36-0.23h-3.4l-2.72-0.23h-1.13h-2.04h-4.31H58h-0.68h-2.27
		c-0.45,0-0.95,0-1.47,0c-0.53,0-1.02,0.08-1.47,0.23l-1.59,0.23l-2.27,0.23h-1.81l-4.08,0.68c-0.91,0.15-1.51,0.53-1.81,1.13
		c-0.76,0-1.33,0-1.7,0c-0.38,0-0.72-0.23-1.02-0.68h-0.23c-0.15-0.15-0.61-0.23-1.36-0.23l-0.68-0.91
		c-0.15-0.15-0.3-0.23-0.45-0.23v-0.23h-0.45l-0.23-0.23c-0.3-0.15-0.83-0.23-1.59-0.23v0.23c-0.31-0.15-0.91-0.23-1.81-0.23
		l-0.68,0.23l-0.45,0.23h-0.91c-0.45,0-1.13,0.15-2.04,0.45h-0.68c-0.91-0.91-1.81-1.36-2.72-1.36c-0.45,0-0.76,0.08-0.91,0.23
		h-0.45l-0.45,0.23l-0.45,0.23h-0.23c0,0.15-0.15,0.38-0.45,0.68h-2.27c-0.76,0.31-1.33,0.61-1.7,0.91
		c-0.38,0.3-0.79,0.68-1.25,1.13v0.23c-0.15,0-0.3,0.08-0.45,0.23v0.45c-0.3,0.61-0.45,1.67-0.45,3.17v2.27
		c-0.3,0.3-0.45,0.42-0.45,0.34c0-0.07-0.15,0.04-0.45,0.34h-0.23c-0.45,0.3-0.68,1.02-0.68,2.15c0,1.13,0,2.08,0,2.83v2.72
		c0.15,0.3,0.19,0.65,0.11,1.02c-0.08,0.38-0.04,0.72,0.11,1.02l0.23,1.36v2.49c0.3,0.76,0.41,1.47,0.34,2.15
		c-0.08,0.68,0.04,1.4,0.34,2.15v1.36L14,50.94l0.23,0.68v1.36c0.3,0.91,0.53,1.85,0.68,2.83c0.15,0.98,0.38,1.85,0.68,2.61
		l0.45,2.49l0.23,0.68c0,0.3,0.04,0.45,0.11,0.45c0.07,0,0.11,0.08,0.11,0.23c0,0.15,0.07,0.23,0.23,0.23c0,0.31,0,0.68,0,1.13
		c0,0.45-0.08,0.76-0.23,0.91v6.35c-0.3,0.3-0.49,0.45-0.57,0.45c-0.08,0-0.27,0.15-0.57,0.45l-0.23,0.23l-0.23,0.23v0.23
		l-0.23,0.23v3.63c-0.15,0.3-0.23,0.83-0.23,1.59v2.04c0,0.76-0.08,1.29-0.23,1.59v1.81v0.68L14,86.32v4.54l-0.23,0.23v1.59v0.68
		l-0.23,2.5v6.8c-0.15,0.31-0.23,0.72-0.23,1.25c0,0.53,0,0.95,0,1.25v4.76c0,0.61-0.04,1.21-0.11,1.81
		c-0.08,0.61-0.11,1.29-0.11,2.04c0,0.76,0.15,1.74,0.45,2.95l0.23,4.99v2.95l0.23,1.36c0.15,0.45,0.23,1.29,0.23,2.49
		c0,0.15-0.08,0.23-0.23,0.23l-0.23,0.45l-0.23,0.23v0.68l-0.23,1.36c0,0.61,0,1.25,0,1.93c0,0.68,0.07,1.33,0.23,1.93v5.44
		c0,0.91,0.04,1.85,0.11,2.83c0.07,0.99,0.11,2.01,0.11,3.06l-0.23,0.23l-0.23,0.45v1.59l-0.23,0.91v2.72c0,0.3-0.04,0.65-0.11,1.02
		c-0.08,0.38-0.11,0.79-0.11,1.25c0,0.3,0.04,0.53,0.11,0.68c0.07,0.15,0.11,0.31,0.11,0.45v0.91l0.23,0.45l0.23,0.23l0.23,0.23
		c0.15,0,0.23,0.08,0.23,0.23h0.68l0.45,1.36h0.68l1.36,0.23c0.6,0,0.91-0.07,0.91-0.23l0.23,0.23l0.91,0.68
		c0.6,0.3,1.06,0.45,1.36,0.45c0.91,0,1.59-0.23,2.04-0.68l0.23-0.23l0.23-0.23h0.23h0.45h1.59c0.45,0,0.75-0.07,0.91-0.23h1.59
		l0.68,1.36c0.6,0,0.94,0.08,1.02,0.23c0.07,0.15,0.26,0.23,0.57,0.23c0.3,0,0.6-0.15,0.91-0.45h0.45l0.23-0.23
		c0.3,0,0.53-0.07,0.68-0.23h0.23c0-0.15,0.04-0.23,0.11-0.23c0.07,0,0.11-0.07,0.11-0.23h0.23c0.3,0,0.6-0.15,0.91-0.45l0.68-0.23
		h0.68l4.08-0.23c-0.15,0.15-0.23,0.61-0.23,1.36c0,0.45,0.53,0.83,1.59,1.13c2.12,0,4.27-0.04,6.46-0.11
		c2.19-0.07,4.34-0.11,6.46-0.11h6.35c0.3,0,0.68,0.04,1.13,0.11c0.45,0.08,0.83,0.11,1.13,0.11c0.3,0,0.53-0.04,0.68-0.11
		c0.15-0.07,0.3-0.11,0.45-0.11l3.4-0.23h4.31l1.59-0.23l1.13-0.23h2.27l1.13-0.23l0.68-0.23c0.45,0.15,1.36,0.23,2.72,0.23
		c0.75,0,1.74,0,2.95,0c1.21,0,2.42,0,3.63,0c1.21,0,2.23-0.04,3.06-0.11c0.83-0.07,1.25-0.26,1.25-0.57l0.45-0.23
		c0.15-0.15,0.3-0.23,0.45-0.23l1.36-0.23l0.23-0.23h0.68l0.23-0.23c1.96,0,3.17,0.08,3.63,0.23l0.23,0.68
		c0.15,0.45,0.53,0.68,1.13,0.68l0.91,0.23c0.15,0,0.26,0.04,0.34,0.11c0.07,0.08,0.19,0.11,0.34,0.11c0.6,0,1.06-0.15,1.36-0.45
		h1.59l1.13-0.23l0.23-0.23c0.3,0,0.53-0.07,0.68-0.23h0.68l0.23-0.23l0.23-0.23c0.15,0,0.26-0.04,0.34-0.11
		c0.07-0.07,0.19-0.11,0.34-0.11c0.15,0,0.23-0.07,0.23-0.23h0.45c-0.15,0.31-0.3,0.68-0.45,1.13c-0.15,0.45-0.23,0.91-0.23,1.36
		v0.23l0.23,0.23l0.91,0.68l0.45,0.23h0.45l0.45,0.23l0.68,0.23c0.15,0,0.38-0.04,0.68-0.11c0.3-0.07,0.53-0.11,0.68-0.11h0.45
		l0.68-0.23c0.75-0.3,1.36-1.28,1.81-2.95v-0.68l0.23-0.68l0.23-0.23c0-0.15,0.04-0.26,0.11-0.34c0.07-0.07,0.11-0.19,0.11-0.34
		v-2.04l0.68-3.63l0.23-1.81v-4.08l0.23-1.13l0.23-0.91v-1.59l0.23-0.68l2.04-12.47l0.68-4.54l0.23-1.13l0.23-0.91v-3.63l0.23-0.23
		c0-0.3,0-0.83,0-1.59c0-0.75-0.08-1.21-0.23-1.36v-1.81l0.91-0.68v-1.13v-0.23l-0.23-0.45L121.73,110.59z M90.88,32.57h0.45v0.68
		h-0.91L90.88,32.57z M41.44,64.78v-0.91l0.23-0.68v-1.36l0.45-3.4c0.3-0.75,0.41-1.47,0.34-2.15c-0.08-0.68,0.04-1.32,0.34-1.93
		v-3.18l0.23-2.49v-0.91v-2.04V43l-0.23-0.23v-0.45c0.3-0.3,0.45-0.6,0.45-0.91h0.68l2.27-0.23c0.3-0.15,0.68-0.19,1.13-0.11
		c0.45,0.08,0.83,0.04,1.13-0.11l25.4-0.23h3.86l2.49,0.23h3.86l1.59,0.23l1.36,0.23h2.49l0.91,0.23c1.06,0,1.66,0.08,1.81,0.23
		l0.68,2.27l0.23,0.45v0.68l0.23,0.45c0,0.76,0.11,1.36,0.34,1.81c0.23,0.45,0.34,1.06,0.34,1.81v0.45h-0.23v3.86
		c0,0.91-0.08,1.4-0.23,1.47c-0.15,0.08-0.3,0.19-0.45,0.34L92.7,55.7c0,0.15-0.04,0.23-0.11,0.23c-0.08,0-0.11,0.08-0.11,0.23
		h-0.23l-0.23,0.23h-0.23l-0.23,0.23c0,0.11,0,0.18,0,0.23c0-0.15-0.15-0.07-0.45,0.23l-0.23,0.23l-0.68,0.45l-0.23,0.23
		c-0.15,0-0.23,0.08-0.23,0.23h-0.23c-0.15,0-0.23,0.08-0.23,0.23h-0.23l-0.23,0.23c-0.15,0-0.23,0.08-0.23,0.23h-0.23l-0.23,0.23
		c-0.15,0-0.23,0.08-0.23,0.23h-0.23c-0.15,0.15-0.23,0.3-0.23,0.45h-0.23l-0.45,0.23c0,0.15-0.04,0.23-0.11,0.23
		c-0.08,0-0.11,0.08-0.11,0.23h-0.23l-0.45,0.23c0,0.15-0.04,0.23-0.11,0.23c-0.08,0-0.11,0.08-0.11,0.23h-0.23
		c-0.15,0.15-0.23,0.3-0.23,0.45h-0.23l-0.23,0.23c-0.3,0.3-0.53,0.45-0.68,0.45h-0.23l-0.91,0.91c-0.15,0.3-0.3,0.49-0.45,0.57
		c-0.15,0.08-0.38,0.27-0.68,0.57l-2.27,2.49l-0.91,0.91l-0.68,0.91l-0.23,0.45c-0.3,0-0.42,0.04-0.34,0.11
		c0.07,0.08-0.04,0.27-0.34,0.57c-1.21-0.3-2.38-0.53-3.52-0.68c-1.13-0.15-2.31-0.38-3.52-0.68c-0.91,0-1.74-0.07-2.5-0.23
		c-0.76-0.15-1.44-0.23-2.04-0.23c-0.61,0-1.06-0.15-1.36-0.45l-1.13-0.23h-2.04l-1.13-0.23l-1.59-0.23H54.6l-3.4-0.23
		c-0.3,0-0.68-0.04-1.13-0.11c-0.45-0.07-0.91-0.11-1.36-0.11c-1.67,0-3.03,0.08-4.08,0.23c-1.06,0.15-2.19,0.23-3.4,0.23
		C41.22,65.61,41.29,64.93,41.44,64.78z M40.99,78.38c-0.76,0-1.29,0.15-1.59,0.45h-0.23c0-0.15,0.04-0.3,0.11-0.45
		c0.07-0.15,0.11-0.3,0.11-0.45h0.45h1.36h0.45l0.91,0.23l-0.91,0.23H40.99z M96.1,121.47v0.91c-0.15,0.45-0.23,0.95-0.23,1.47
		c0,0.53-0.15,1.1-0.45,1.7v0.91l-0.23,1.13l-0.23,2.95v4.31l0.23,2.04c-4.23,0-8.43-0.04-12.59-0.11
		c-4.16-0.07-8.36-0.11-12.59-0.11c-1.97,0-3.89,0-5.78,0c-1.89,0-3.82,0.08-5.78,0.23h-1.81l-1.59,0.23l-1.59,0.23H51.2
		c-0.61,0.3-1.21,0.42-1.81,0.34c-0.61-0.07-1.21,0.04-1.81,0.34h-0.68c-0.76,0.15-1.59,0.27-2.49,0.34
		c-0.91,0.08-1.74,0.27-2.49,0.57v-0.91c0.75-0.15,1.36-0.45,1.81-0.91l0.45-0.45c0.3,0,0.49-0.19,0.57-0.57
		c0.07-0.38,0.11-0.72,0.11-1.02h0.23v-0.91l0.23-0.45v-0.91l0.23-0.45l0.68-2.95c0-0.3,0.04-0.68,0.11-1.13
		c0.07-0.45,0.11-0.83,0.11-1.13l0.23-1.13v-2.95c0.15-0.3,0.23-0.79,0.23-1.47c0-0.68,0-1.17,0-1.47v-2.04c0-1.21,0-2.64,0-4.31
		c0-1.66,0.53-3.7,1.59-6.12v-0.68l0.23-0.68v-1.36c0.15-0.45,0.23-0.98,0.23-1.59c0-0.6,0.15-1.13,0.45-1.59V99.7l0.23-1.13v-3.17
		c0.15-0.45,0.23-1.28,0.23-2.5h20.18c0.75,0,1.47-0.04,2.15-0.11c0.68-0.07,1.25-0.11,1.7-0.11h1.36h0.68h0.91
		c0.3,0,0.53-0.07,0.68-0.23h1.13l0.45,1.13l0.23,0.23l0.23,0.45l0.23,0.68L80,95.39c0,0.3,0.07,0.53,0.23,0.68v0.23l0.23,0.45
		l0.23,0.23l0.23,0.45l0.23,0.23l0.23,0.68l0.23,0.23l0.23,0.23v0.23c0.15,0.15,0.3,0.23,0.45,0.23v0.45l0.23,0.23l0.23,0.23
		c0,0.15,0.07,0.23,0.23,0.23v0.23c0.3,0,0.45,0.15,0.45,0.45v0.23c0.15,0,0.3,0.08,0.45,0.23v0.23c0.45,0.15,0.75,0.45,0.91,0.91
		l1.13,0.91c0,0.15,0.04,0.27,0.11,0.34c0.07,0.08,0.11,0.19,0.11,0.34h0.23l0.91,0.68l0.45,0.45h0.23c0,0.15,0.04,0.23,0.11,0.23
		c0.07,0,0.11,0.08,0.11,0.23h0.23l0.23,0.23h0.23c0,0.15,0.07,0.31,0.23,0.45l0.23,0.23h0.45l1.36,1.36l0.23,0.23l0.45,0.45
		l0.23,0.23l0.23,0.45l0.23,0.45l0.23,0.45l0.23,0.23l0.23,0.23c0,0.15,0.07,0.3,0.23,0.45l0.23,0.23c0,0.15,0.07,0.23,0.23,0.23
		v0.45c0.15,0,0.23,0.08,0.23,0.23v0.23l0.23,0.23l0.23,0.45c0.3,0,0.45,0.3,0.45,0.91h0.23c0,0.15,0.04,0.23,0.11,0.23
		c0.07,0,0.11,0.08,0.11,0.23l0.23,0.23c0,0.61,0.19,0.99,0.57,1.13c0.38,0.15,0.64,0.3,0.79,0.45L96.1,121.47z"/>
	<path d="M246.69,158.21h-0.23c0-0.15,0.04-0.26,0.11-0.34c0.07-0.07,0.11-0.19,0.11-0.34v-0.45l-0.23-0.23l-0.23-1.36l-0.23-0.45
		v-0.45l-0.23-0.23l-0.23-0.45l-0.23-0.45l-0.23-0.23c0-0.15-0.08-0.23-0.23-0.23v-0.23c-0.15,0-0.23-0.04-0.23-0.11
		c0-0.07-0.08-0.11-0.23-0.11v-0.23l-1.36-1.59c-0.15-0.15-0.23-0.45-0.23-0.91h-0.23v-0.45l-0.23-0.68l-0.23-0.23l-0.23-0.23
		l-0.23-0.45l-0.23-0.68c0-0.3-0.08-0.53-0.23-0.68l-0.23-0.23v-0.45l-0.23-0.23l-0.23-0.45c0-0.15-0.08-0.23-0.23-0.23v-0.23
		l-0.23-0.45l-0.23-0.23c-0.15-0.15-0.23-0.3-0.23-0.45l-0.23-0.23c0-0.3-0.23-0.68-0.68-1.13l-0.23-0.45l-0.23-0.23l-0.23-0.45
		c0-0.15-0.04-0.23-0.11-0.23c-0.08,0-0.11-0.07-0.11-0.23l-0.23-0.23l-0.23-0.23v-0.23l-0.23-0.23c0-0.15-0.08-0.3-0.23-0.45
		l-0.23-0.23l-0.23-0.45l-0.45-0.45v-0.23c0,0.15-0.04,0.11-0.11-0.11c-0.08-0.23-0.19-0.34-0.34-0.34v-0.23l-0.23-0.45
		c-0.15,0-0.23-0.04-0.23-0.11c0-0.07-0.08-0.11-0.23-0.11v-0.23c-0.15,0-0.23-0.07-0.23-0.23v-0.23l-0.23-0.23
		c-0.15-0.15-0.3-0.23-0.45-0.23v-0.23c0-0.15-0.08-0.23-0.23-0.23v-0.23c-0.15,0-0.23-0.04-0.23-0.11c0-0.07-0.08-0.11-0.23-0.11
		v-0.23l-0.45-0.45l-0.23-0.23c0-0.15-0.08-0.23-0.23-0.23v-0.23l-0.23-0.45l-0.45-0.45v-0.23c-0.15,0-0.3-0.07-0.45-0.23v-0.23
		c-0.3-0.3-0.53-0.45-0.68-0.45v-0.23l-0.68-0.91c-0.15,0-0.23-0.07-0.23-0.23c0-0.15-0.15-0.23-0.45-0.23v-0.23l-0.91-0.91
		c-0.15-0.3-0.3-0.49-0.45-0.57c-0.15-0.07-0.3-0.26-0.45-0.57v-0.23l-0.68-0.45l-2.49-4.76c-0.91-1.66-1.78-3.32-2.61-4.99
		c-0.83-1.66-1.78-3.32-2.84-4.99v-0.45c-0.3,0-0.45-0.23-0.45-0.68l-0.23-0.45c-0.3,0-0.38-0.04-0.23-0.11
		c0.15-0.07,0.07-0.26-0.23-0.57h-0.23L217.2,109c0-0.15-0.04-0.26-0.11-0.34c-0.08-0.07-0.34-0.41-0.79-1.02v-0.23l-0.23-0.45
		l-0.23-0.45l-0.23-0.23l-0.23-0.23v-0.23l-0.23-0.23l-0.23-0.23v-0.23c-0.15,0-0.23-0.07-0.23-0.23l-0.23-0.23
		c0-0.15-0.08-0.23-0.23-0.23l-0.23-0.45l-0.23-0.45c-0.15-0.15-0.3-0.23-0.45-0.23v-0.23l-0.23-0.23v-0.23l-0.45-0.45l-0.23-0.45
		l-0.23-0.23l-0.23-0.45c-0.15,0-0.23-0.04-0.23-0.11c0-0.07-0.08-0.11-0.23-0.11v-0.23c0-0.15-0.08-0.23-0.23-0.23v-0.23
		c-0.15-0.15-0.3-0.23-0.45-0.23V99.7l-0.45-0.68l-0.45-0.23v-0.23l-1.36-0.68v-0.23c0.45,0,0.98,0,1.59,0
		c0.6,0,1.13-0.07,1.59-0.23h4.31c1.36,0,2.27-0.07,2.72-0.23h1.59l1.59-0.23h2.72l1.13-0.23c0.3-0.15,0.6-0.19,0.91-0.11
		c0.3,0.08,0.6,0.04,0.91-0.11c0.15,0,0.38,0.08,0.68,0.23c0.3,0.15,0.45,0.3,0.45,0.45l0.23,0.23l0.68,0.23h0.45l0.45,0.23
		l0.23,0.23h0.91l0.68,0.23c0.91,0.3,1.81,0.45,2.72,0.45c0.3,0,0.49-0.04,0.57-0.11c0.07-0.07,0.26-0.11,0.57-0.11h1.59l0.68-0.23
		h0.68l0.45-0.23l0.23-0.23c0.45,0,0.75-0.15,0.91-0.45c0.15-0.3,0.38-0.6,0.68-0.91h0.23l0.68-1.13l0.23-0.23v-0.45
		c0-0.3-0.04-0.53-0.11-0.68c-0.08-0.15-0.11-0.38-0.11-0.68c-0.15,0,0.23-0.15,1.13-0.45l0.23-0.23c0.15,0,0.23-0.07,0.23-0.23
		l0.23-0.23v-0.45l0.23-0.68c0-0.3,0.04-0.6,0.11-0.91c0.07-0.3,0.11-0.6,0.11-0.91c0-0.3-0.04-0.64-0.11-1.02
		c-0.08-0.38-0.19-0.57-0.34-0.57l-0.23-0.23c0-0.3-0.23-0.6-0.68-0.91c0.75-0.45,1.21-0.98,1.36-1.59v-2.95c0-1.06,0-2.15,0-3.29
		c0-1.13,0.07-2.23,0.23-3.29v-2.95v-0.68v-1.13v-5.9l0.23-0.68v-2.04l0.23-1.36l0.23-1.13v-4.54c0.3-0.6,0.45-2.12,0.45-4.54
		c0-0.45-0.15-0.98-0.45-1.59v-1.13l-0.23-2.72l-0.45-4.54l-0.23-0.68l-0.23-1.13v-0.91l-0.23-0.45l-0.23-0.45v-1.13l-0.23-0.45
		c-0.15-0.15-0.23-0.38-0.23-0.68v-3.63l-0.23-0.68c-0.3-0.3-0.53-0.53-0.68-0.68c-0.15-0.15-0.45-0.3-0.91-0.45v-0.91
		c0-0.6-0.15-1.06-0.45-1.36l-0.45-0.68c-0.15,0-0.68-0.15-1.59-0.45c-0.3,0-0.57,0.04-0.79,0.11c-0.23,0.08-0.49,0.11-0.79,0.11
		l-0.23-0.23l-0.23-0.23h-0.68l-0.23-0.23l-0.23-0.23c-0.45,0-0.76-0.07-0.91-0.23h-0.45l-0.23-0.23c-0.3,0-0.65,0-1.02,0
		c-0.38,0-0.65-0.15-0.79-0.45h-0.45l-0.45-0.23h-0.91l-0.68-0.23l-0.68-0.23l-1.81-0.23h-0.91c-1.81,0-2.87,0.15-3.17,0.45
		l-0.23,0.23l-0.45,0.23l-0.45,0.23l-0.68,0.45l-0.23,0.23l-0.68,0.68c-0.45,0-0.95,0-1.47,0c-0.53,0-0.95,0.08-1.25,0.23h-2.04
		h-0.68l-3.17,0.23H201.1h-6.35c-0.3-0.15-0.76-0.19-1.36-0.11c-0.61,0.08-1.06,0.04-1.36-0.11h-3.4l-1.36-0.23l-0.91-0.23h-2.27
		l-1.13-0.23l-0.91-0.23l-2.27-0.23h-2.04l-1.36-0.23l-1.36-0.23h-5.9c-1.36,0-2.69,0.04-3.97,0.11c-1.29,0.08-2.46,0.27-3.52,0.57
		h-0.68c-1.36,0.3-2.35,0.83-2.95,1.59h-2.72l-2.27-0.23h-1.13c-1.51,0-2.5,0.04-2.95,0.11c-0.45,0.08-1.06,0.11-1.81,0.11
		l-0.68,0.23h-1.36c-0.61,0.3-1.44,0.64-2.49,1.02c-1.06,0.38-1.81,0.57-2.27,0.57l-0.23,0.23c-0.3,0.31-0.53,0.45-0.68,0.45v0.68
		h0.23c0,0.15-0.04,0.3-0.11,0.45c-0.08,0.15-0.11,0.3-0.11,0.45l-0.23,0.45l-0.23,0.23v0.91l-0.23,0.68c0,0.15-0.04,0.3-0.11,0.45
		c-0.08,0.15-0.11,0.38-0.11,0.68c0,0.45,0.04,0.91,0.11,1.36c0.07,0.45,0.11,0.76,0.11,0.91l0.23,1.36v2.95l0.23,1.59v3.63
		l0.23,1.59c0,0.61-0.04,1.17-0.11,1.7c-0.08,0.53-0.11,1.1-0.11,1.7c0,0.3,0.04,0.57,0.11,0.79c0.07,0.23,0.11,0.49,0.11,0.79v7.94
		c0,0.45,0,0.95,0,1.47c0,0.53,0.07,1.02,0.23,1.47v3.4v2.95l0.23,2.72c0.15,0.3,0.19,0.72,0.11,1.25
		c-0.08,0.53-0.04,0.95,0.11,1.25v5.44l0.23,2.72l0.23,3.17v0.45c0,0.3-0.04,0.68-0.11,1.13c-0.08,0.45-0.11,0.83-0.11,1.13
		c0,0.45,0.07,0.76,0.23,0.91l-0.23,4.31c0,0.15-0.08,0.23-0.23,0.23l-0.23,0.23c-0.45,0.45-0.65,0.68-0.57,0.68
		c0.07,0-0.04,0.15-0.34,0.45v0.45l-0.23,4.54c0,0.76,0.04,1.44,0.11,2.04c0.07,0.61,0.11,1.06,0.11,1.36v1.59v1.81l0.23,1.81
		l0.23,1.36l0.45,7.26c0.15,0.45,0.23,0.95,0.23,1.47c0,0.53,0,1.02,0,1.47v6.35v2.49V131l-0.23,2.04l-0.23,2.95v1.59l-0.23,1.13
		v1.59c-0.15,2.12-0.3,4.05-0.45,5.78c-0.15,1.74-0.23,3.82-0.23,6.24c0,0.3,0.04,0.53,0.11,0.68c0.07,0.15,0.11,0.38,0.11,0.68
		v0.91c0,0.3,0.04,0.64,0.11,1.02c0.07,0.38,0.11,0.72,0.11,1.02v1.13c0.3,0.45,0.45,1.02,0.45,1.7c0,0.68,0.15,1.25,0.45,1.7
		l0.45,0.68l0.68,0.23l0.45,0.23l0.91,0.91c0.15,0,0.23,0.04,0.23,0.11c0,0.08,0.07,0.11,0.23,0.11h0.23l2.04,0.23h7.48l1.81,0.23
		l1.36-0.23h2.27l0.68-0.23l0.45-0.23h1.81l0.23-0.23l0.45-0.23l0.23-0.23c0.15,0.15,0.3,0.23,0.45,0.23
		c0.15,0.15,0.3,0.23,0.45,0.23h1.36l0.45,0.23c0.15,0,0.49,0,1.02,0c0.53,0,0.94-0.15,1.25-0.45h0.23c0.11,0,0.18,0,0.23,0
		c-0.15,0-0.08-0.15,0.23-0.45v-0.23c0.15,0,0.38-0.15,0.68-0.45v-2.95c-0.15-0.15-0.23-0.3-0.23-0.45c0-0.15-0.15-0.23-0.45-0.23
		v-0.23l0.23-0.23h-0.23l-0.23-2.72v-3.4l-0.23-2.49v-1.59l-0.23-0.23v-1.81v-3.63l0.23-1.59l0.23-1.59v-2.95l0.23-1.81l0.23-1.59
		v-4.76c0.15-0.15,0.26-0.64,0.34-1.47c0.07-0.83,0.11-1.78,0.11-2.83c0-0.45-0.15-0.98-0.45-1.59v-1.59v-0.91l-0.45-6.35
		l-0.23-1.36v-2.49l-0.23-1.36v-1.59l-0.23-1.13v-2.95l-0.23-1.81c0-0.15-0.04-0.26-0.11-0.34c-0.08-0.07-0.11-0.19-0.11-0.34
		c0-0.3,0.04-0.6,0.11-0.91c0.07-0.3,0.11-0.6,0.11-0.91h2.49h3.17c0,0.15-0.08,0.23-0.23,0.23c0.15,0.3,0.26,0.45,0.34,0.45
		c0.07,0,0.19,0.08,0.34,0.23v0.23l0.68,0.68v0.23l0.45,0.45v0.23l0.91,0.91l0.45,0.45v0.23l0.91,0.91l0.68,0.68l0.23,0.23v0.23
		l0.23,0.23v0.23l0.23,0.23c0.15,0,0.23,0.04,0.23,0.11c0,0.08,0.07,0.11,0.23,0.11l0.23,0.45c0,0.15,0.07,0.23,0.23,0.23v0.23
		c0,0.15,0.07,0.23,0.23,0.23v0.23c0.15,0,0.23,0.04,0.23,0.11c0,0.08,0.07,0.11,0.23,0.11v0.23l0.23,0.23v0.23l0.23,0.23v0.23
		c0.15,0,0.3,0.08,0.45,0.23v0.23l0.23,0.23v0.23c0.15,0,0.3,0.08,0.45,0.23v0.23l0.23,0.23v0.23c0.3,0,0.45,0.08,0.45,0.23
		c0,0.15,0.07,0.23,0.23,0.23l0.23,0.45c0,0.15,0.07,0.3,0.23,0.45h0.23l0.23,0.45l0.23,0.45l0.23,0.45l0.23,0.23
		c0,0.15,0.07,0.3,0.23,0.45v0.45l0.23,0.23l0.23,0.23l0.23,0.23c0,0.15,0.07,0.23,0.23,0.23v0.23l0.23,0.23
		c0,0.15,0.07,0.23,0.23,0.23v0.45l0.23,0.23c0.15,0,0.23,0.08,0.23,0.23v0.23l0.23,0.23c0.3,0,0.38,0.04,0.23,0.11
		c-0.15,0.08-0.08,0.27,0.23,0.57h0.23l0.23,0.45l0.23,0.23l0.23,0.23l0.23,0.45l0.23,0.23v0.45c0.15,0,0.23,0.08,0.23,0.23v0.23
		c0.3,0,0.45,0.23,0.45,0.68l0.23,0.23l0.23,0.23v0.23l0.23,0.23l0.23,0.45l0.23,0.23l0.23,0.23c0,0.15,0.04,0.23,0.11,0.23
		c0.07,0,0.11,0.08,0.11,0.23l0.23,0.23c0,0.15,0.07,0.23,0.23,0.23l0.23,0.45l0.23,0.23v0.23l0.23,0.45l0.23,0.23l0.23,0.23v0.23
		l0.23,0.23l0.23,0.23v0.23l0.23,0.23l0.23,0.23l0.23,0.23c0.15,0.15,0.23,0.3,0.23,0.45v0.23l0.23,0.23
		c0.15,0.15,0.3,0.23,0.45,0.23v0.23l0.23,0.23v0.23l0.23,0.23c0,0.15,0.07,0.23,0.23,0.23v0.23c0.11,0,0.18,0,0.23,0
		c-0.15,0-0.08,0.15,0.23,0.45v0.23c0.15,0,0.23,0.04,0.23,0.11c0,0.08,0.07,0.11,0.23,0.11v0.23l0.23,0.23
		c0,0.15,0.07,0.23,0.23,0.23v0.23l0.23,0.45l0.23,0.23c0,0.15,0.07,0.23,0.23,0.23v0.23c0.15,0,0.23,0.08,0.23,0.23v0.23
		c0.15,0,0.3,0.08,0.45,0.23v0.23l0.23,0.23l0.23,0.45c0.15,0,0.23,0.08,0.23,0.23v0.23l0.45,0.23c0,0.15,0.07,0.23,0.23,0.23v0.23
		l0.23,0.45c0.15,0,0.23,0.04,0.23,0.11c0,0.08,0.07,0.11,0.23,0.11v0.23l0.23,0.45l0.23,0.23c0.15,0.15,0.3,0.23,0.45,0.23v0.23
		l0.23,0.23v0.23l0.23,0.45c0.15,0,0.23,0.04,0.23,0.11c0,0.08,0.07,0.11,0.23,0.11v0.23l0.23,0.45l0.23,0.23l0.45,0.45
		c0,0.15,0.07,0.23,0.23,0.23v0.23c0.15,0,0.23,0.08,0.23,0.23l0.23,0.23c0,0.15,0.07,0.23,0.23,0.23v0.23l0.45,0.68
		c0.15,0,0.3,0.08,0.45,0.23v0.23l0.23,0.23v0.23l0.23,0.23c0.15,0.15,0.3,0.23,0.45,0.23v0.23l0.45,0.68
		c0.15,0,0.23,0.08,0.23,0.23v0.23c0.45,0,0.68,0.23,0.68,0.68l0.23,0.23l0.45,0.45v0.23l0.23,0.23v0.23c0.15,0,0.23,0.04,0.23,0.11
		c0,0.08,0.07,0.11,0.23,0.11v0.23c0.3,0,0.45,0.08,0.45,0.23c0,0.15,0.07,0.31,0.23,0.45l0.23,0.23c0,0.15,0.04,0.23,0.11,0.23
		c0.07,0,0.11,0.08,0.11,0.23v0.23c0.15,0,0.3,0.08,0.45,0.23v0.23c0.3,0,0.45,0.15,0.45,0.45v0.23c0.15,0,0.3,0.08,0.45,0.23v0.23
		c0.15,0,0.3,0.15,0.45,0.45c0.15,0.3,0.38,0.45,0.68,0.45v0.23l0.45,0.45v0.23l0.45,0.45v0.23c0.15,0,0.23,0.04,0.23,0.11
		c0,0.08,0.07,0.11,0.23,0.11l0.45,0.68l0.68,0.68l0.45,0.68l0.68,0.68l0.45,0.68l0.68,0.68l0.23,0.23c0,0.15,0.07,0.3,0.23,0.45
		h0.45l0.23,0.23c0.15,0,0.23,0.08,0.23,0.23l1.13,0.91l0.68,2.04c0.15,0.3,0.19,0.64,0.11,1.02c-0.08,0.38,0.04,0.72,0.34,1.02
		v0.23l0.23,0.23c0,0.15,0.07,0.23,0.23,0.23v0.45l0.23,0.23c0,0.15,0.15,0.38,0.45,0.68h0.45l0.23,0.23l0.23,0.23l0.68,0.23
		c0.3,0,0.68,0,1.13,0s0.75-0.08,0.91-0.23l0.23-0.23l0.68,0.23c0.15,0,0.45-0.04,0.91-0.11c0.45-0.08,0.75-0.19,0.91-0.34v-0.23
		l0.45-0.23l0.23-0.23l0.45-0.23h0.68l0.68-0.23h2.49c0.15,0,0.23-0.04,0.23-0.11c0-0.07,0.07-0.11,0.23-0.11l0.91,0.23
		c0.15,0,0.38,0.04,0.68,0.11c0.3,0.08,0.6,0.11,0.91,0.11l0.45-0.23c0.45,0,0.83-0.15,1.13-0.45l3.86-0.45l0.23-0.23h0.45
		c0.15-0.15,0.38-0.23,0.68-0.23l0.23-0.23c0.45,0,0.83,0.15,1.13,0.45c0.15,0,0.57-0.07,1.25-0.23c0.68-0.15,1.09-0.23,1.25-0.23
		v-0.23l0.45-0.23l0.45-0.23l0.23-0.45l0.91-0.68l-0.23-0.91V158.21z M226.73,29.96c0-0.07,0.07-0.11,0.23-0.11v0.23l0.23,0.23
		c-0.15,0-0.27-0.04-0.34-0.11c-0.08-0.07-0.19-0.11-0.34-0.11C226.65,30.08,226.73,30.04,226.73,29.96z M145.99,32.8
		c0,0.15,0.15,0.23,0.45,0.23l-0.45,0.45V32.8z M146.9,46.97c0,0.08-0.08,0.11-0.23,0.11V42.1l-0.23-2.72
		c0.15,0.15,0.19,0.34,0.11,0.57c-0.08,0.23-0.04,0.49,0.11,0.79l0.23,0.68v2.04c0.15,0.45,0.23,1.59,0.23,3.4
		C146.97,46.86,146.9,46.9,146.9,46.97z M146.22,30.98h-0.23c0-0.3,0.23-0.6,0.68-0.91h0.68C147.05,30.23,146.67,30.53,146.22,30.98
		z M158.92,30.08c-0.15,0-0.3-0.04-0.45-0.11c-0.15-0.07-0.38-0.11-0.68-0.11c-0.31,0-0.68,0.04-1.13,0.11
		c-0.45,0.08-0.91,0.11-1.36,0.11c-0.45,0-0.68-0.07-0.68-0.23h-0.23c0.6,0,0.98-0.07,1.13-0.23c0.6,0,1.17,0.04,1.7,0.11
		c0.53,0.08,1.17,0.11,1.93,0.11L158.92,30.08z M222.65,84.73c0-0.15,0.07-0.23,0.23-0.23l0.45-0.23c0,0.3,0.07,0.53,0.23,0.68v0.23
		l0.23,0.68c0.3,0.3,0.45,0.53,0.45,0.68c-0.45,0-0.76-0.07-0.91-0.23c-0.76,0-1.55,0.04-2.38,0.11c-0.83,0.08-1.33,0.19-1.47,0.34
		l-1.36-0.23c0.3,0,0.53-0.07,0.68-0.23l0.45-0.23l0.45-0.68c0.6,0,0.98-0.07,1.13-0.23h0.45l0.23-0.23h0.68l0.23-0.23H222.65z
		 M220.83,79.74v-0.23h0.45c0.15,0,0.3-0.04,0.45-0.11c0.15-0.07,0.3-0.11,0.45-0.11c0,0.15,0.04,0.23,0.11,0.23
		c0.07,0,0.11,0.08,0.11,0.23H220.83z M163.23,91.08h-0.45c-0.15,0-0.3,0.04-0.45,0.11c-0.15,0.08-0.3,0.11-0.45,0.11v-1.59
		c0.3,0.61,0.49,0.91,0.57,0.91c0.07,0,0.34,0.08,0.79,0.23V91.08z M164.14,39.6c-1.06,0-1.59,0.15-1.59,0.45
		c-0.76,0-1.21-0.15-1.36-0.45c-0.15-0.3-0.23-0.75-0.23-1.36c0.6,0.15,1.13,0.34,1.59,0.57c0.45,0.23,0.98,0.42,1.59,0.57V39.6z
		 M165.95,29.4c-0.45,0.15-1.51,0.23-3.17,0.23c0.15-0.15,0.34-0.19,0.57-0.11c0.23,0.08,0.49,0.04,0.79-0.11h0.45l0.45-0.23
		c0.75,0,1.28-0.23,1.59-0.68c1.06,0.15,2.08,0.27,3.06,0.34c0.98,0.08,2.08,0.11,3.29,0.11h-1.13h-0.45l-1.36,0.23l-1.36,0.23
		H165.95z M170.6,76.68c-0.23-0.07-0.49-0.04-0.79,0.11h-0.45v0.23h-0.91l-0.23,0.23c-0.15,0.15-0.38,0.23-0.68,0.23v-1.13
		c0.75,0,1.4,0.04,1.93,0.11c0.53,0.08,1.1,0.11,1.7,0.11C171.01,76.72,170.83,76.76,170.6,76.68z M207,73.85h-0.68
		c-0.91,0.45-2.61,0.72-5.1,0.79c-2.49,0.08-4.57,0.19-6.24,0.34h-2.5h-0.91h-1.81c-0.61,0-1.21-0.04-1.81-0.11
		c-0.61-0.07-1.21-0.11-1.81-0.11L185,74.53l-4.76-0.45l-0.91-0.23h-1.59l-1.13-0.23l-1.13-0.23h-2.49l-1.81-0.23h-1.13h-2.04V70.9
		v-1.36v-0.68h-0.23v-2.04l-0.23-0.68c0-0.3-0.15-1.06-0.45-2.27v-1.59v-3.4l-0.23-3.18c0-0.91-0.08-1.44-0.23-1.59v-2.95l1.36,0.23
		h3.18c0.3,0.15,0.72,0.19,1.25,0.11c0.53-0.07,0.94-0.04,1.25,0.11h8.16h5.44l1.13-0.23l2.72-0.23h2.95l0.23-0.23h1.13l1.13-0.23
		h2.49l1.13-0.23l1.13-0.23h2.04c0.75-0.3,1.55-0.41,2.38-0.34c0.83,0.08,1.62-0.04,2.38-0.34h1.13c0.75-0.3,1.51-0.41,2.27-0.34
		c0.75,0.08,1.51-0.04,2.27-0.34l0.91-0.23h1.59l0.91-0.23h1.81l0.91-0.23c0.15-0.15,0.75-0.23,1.81-0.23v6.58
		c0,0.3-0.04,0.68-0.11,1.13c-0.08,0.45-0.11,0.91-0.11,1.36c0,0.91,0.15,1.97,0.45,3.18v2.72l0.23,1.13l0.23,2.72l-0.45,2.04v3.4
		h-5.44l-1.13,0.23l-0.91,0.23l-3.63,0.45L207,73.85z"/>
	<path d="M375.96,67.95c0-0.91,0-2,0-3.29c0-1.28-0.45-2.08-1.36-2.38l-0.23-1.81c0-0.15-0.04-0.26-0.11-0.34
		c-0.08-0.07-0.11-0.19-0.11-0.34c0-0.3,0.04-0.57,0.11-0.79c0.07-0.23,0.11-0.49,0.11-0.79v-1.81l-0.23-1.59l-0.23-1.13v-2.04
		l-0.23-0.91l-0.23-0.91v-1.59l-0.23-4.31c0-0.91,0-1.77,0-2.61c0-0.83-0.08-1.7-0.23-2.61v-2.27c-0.3-0.3-0.42-0.6-0.34-0.91
		c0.07-0.3-0.27-0.6-1.02-0.91c0.15-0.45,0.23-1.06,0.23-1.81v-0.68v-0.68l-0.23-0.91v-0.68l-0.23-0.45l-0.23-0.23v-1.81l-0.23-0.68
		l-0.23-0.45v-0.68l-0.23-0.23l-0.23-0.23l-0.23-0.45l-0.23-0.45l-0.23-0.23l-0.23-0.45l-0.23-0.23c-0.15-0.3-0.61-0.45-1.36-0.45
		h-0.68h-0.68c-0.15,0-0.45,0.08-0.91,0.23c-0.45,0.15-0.76,0.23-0.91,0.23l-0.68-0.23l-0.91-0.23c-0.61-0.15-1.21-0.23-1.81-0.23
		c-0.61,0-1.21-0.15-1.81-0.45h-1.36l-0.91-0.23L356,21.69c-0.61,0-1.13-0.04-1.59-0.11c-0.45-0.07-0.98-0.11-1.59-0.11h-1.36
		c-0.3,0-0.68-0.04-1.13-0.11c-0.45-0.07-0.99-0.11-1.59-0.11c-0.45,0-0.87,0.04-1.25,0.11c-0.38,0.08-0.72,0.11-1.02,0.11h-1.13
		c-3.78,0-6.73,0.38-8.85,1.13h-0.68h-0.91c-0.3-0.15-0.72-0.19-1.25-0.11c-0.53,0.08-0.95,0.04-1.25-0.11
		c-1.36,0-2.76,0.04-4.2,0.11c-1.44,0.08-2.76,0.11-3.97,0.11h-2.04h-1.36h-1.59l-1.13,0.23l-6.8,0.45l-1.81,0.23l-1.36,0.23h-2.5
		l-0.91,0.23c-0.31,0-0.57,0.04-0.79,0.11c-0.23,0.08-0.49,0.11-0.79,0.11l-0.45-1.36l-2.04-0.45h-1.81l-1.36-0.23h-1.13h-2.04
		h-1.59l-0.91,0.23l-0.91,0.23h-1.36h-0.68l-0.68,0.23h-0.68l-0.45,0.23l-0.45,0.23h-0.91l-0.45,0.23c-0.15,0-0.27,0.04-0.34,0.11
		c-0.08,0.08-0.19,0.11-0.34,0.11h-0.45c0.15,0,0.23-0.07,0.23-0.23l0.23-0.23v-0.45l-0.45-0.23c-0.45-0.45-0.98-0.68-1.59-0.68
		c-0.15,0-0.3,0.04-0.45,0.11c-0.15,0.08-0.38,0.11-0.68,0.11v0.23h-0.68c-0.67,0.11-1.05,0.18-1.14,0.21
		c-0.02-0.14-0.24-0.25-0.67-0.32c-0.45-0.07-0.76-0.11-0.91-0.11c-1.21,0-2.12,0.15-2.72,0.45h-0.23h-0.23l-0.45,0.23
		c-0.45,0-0.83,0.23-1.13,0.68h-0.23c0,0.15-0.15,0.38-0.45,0.68h-0.23l-0.23,0.45l-0.23,0.23l-0.68,0.91
		c-0.15,0-0.3,0.08-0.45,0.23l-0.23,0.23l-0.23,0.45l-0.23,0.45c-0.3,0.3-0.45,0.68-0.45,1.13l-0.23,0.45
		c-0.15,0-0.23,0.15-0.23,0.45v0.23l-0.23,0.23c-0.15,0.15-0.23,0.3-0.23,0.45l-0.23,0.45v0.68l-0.23,0.45
		c-0.15,0.15-0.23,0.53-0.23,1.13c0,0.61,0.45,0.91,1.36,0.91l-0.45,1.59c0,0.15-0.23,0.23-0.68,0.23L268,35.75
		c-0.76,0.45-1.17,0.83-1.25,1.13c-0.08,0.3-0.11,0.76-0.11,1.36v3.4c-0.15,0.15-0.23,0.68-0.23,1.59v2.49v1.13v6.8
		c0,0.61,0,1.21,0,1.81c0,0.61,0,1.21,0,1.81v2.49v14.29c0,0.45,0,0.95,0,1.47c0,0.53,0,0.95,0,1.25v9.07
		c0,1.21,0.07,1.97,0.23,2.27v2.95l0.23,0.23v1.36v1.13c0,1.36-0.08,2.27-0.23,2.72v2.27l-0.23,1.36c0,0.91-0.04,1.63-0.11,2.15
		c-0.08,0.53-0.11,1.33-0.11,2.38c0,0.3,0.04,0.57,0.11,0.79c0.07,0.23,0.11,0.49,0.11,0.79c0,0.61-0.04,1.17-0.11,1.7
		c-0.08,0.53-0.11,1.1-0.11,1.7c0,0.3,0.04,0.53,0.11,0.68c0.07,0.15,0.11,0.38,0.11,0.68v1.81v2.27l0.23,0.91l0.23,0.68v2.95
		c0,0.3,0.04,0.53,0.11,0.68c0.07,0.15,0.11,0.38,0.11,0.68l0.23,0.45c-0.15,0.15-0.23,0.53-0.23,1.13l-0.23,2.49l0.23,1.36
		c0,0.3-0.04,0.57-0.11,0.79c-0.08,0.23-0.11,0.49-0.11,0.79c0,1.21,0.11,2.08,0.34,2.61c0.23,0.53,0.34,1.17,0.34,1.93h0.23
		l0.23,0.68l0.23,0.68v0.68l0.23,0.45l0.23,0.23v0.68l0.23,0.23l0.23,0.23v0.45l0.23,0.45c0.15,0,0.23,0.23,0.23,0.68v3.4
		l-0.23,1.59l0.23,2.04l-0.23,2.04v2.49v1.13v1.81l-0.23,0.45c0,0.3-0.04,0.65-0.11,1.02c-0.08,0.38-0.11,0.79-0.11,1.25v0.45h0.23
		c0,1.36,0.11,2.01,0.34,1.93c0.23-0.07,0.72,0.19,1.47,0.79v0.23l0.23,0.91l0.23,0.45l0.23,0.23c0,0.15,0.07,0.23,0.23,0.23
		c0.15,0.15,0.68,0.23,1.59,0.23c-0.31,0.3-0.38,0.49-0.23,0.57c0.15,0.08,0.07,0.11-0.23,0.11v0.45c0.15,0.3,0.6,0.53,1.36,0.68
		c0.75,0.15,1.28,0.3,1.59,0.45h2.27c0.3,0.15,0.72,0.23,1.25,0.23c0.53,0,0.94,0,1.25,0v-0.23h2.5l0.91-0.23l0.91-0.23h1.81
		l0.91-0.23l0.68-0.23h2.04l0.45-0.23h0.23h0.68l0.23-0.23l0.45-0.23c0.15,0,0.3-0.07,0.45-0.23h0.23c0.15,0,0.23-0.07,0.23-0.23
		c0-0.3,0.07-0.45,0.23-0.45v-0.23l0.23-0.23l0.23-0.45c-0.15-0.3-0.23-1.06-0.23-2.27v-1.13l0.23-0.45v-2.49l0.23-1.81l-0.23-2.49
		l-0.23-0.68c-0.3-0.75-0.45-1.36-0.45-1.81c0-0.6,0.07-0.98,0.23-1.13l0.23-1.81l0.23-0.23l0.68-1.13c0-1.21,0-2.38,0-3.52
		s0.07-2.3,0.23-3.52v-6.58v-2.04v-1.13l-0.23-1.36l-0.23-2.49l0.23-0.45v-8.62v-1.81c0-0.75-0.23-1.13-0.68-1.13v-3.86
		c0-0.75-0.08-1.28-0.23-1.59c0.15-0.3,0.23-0.68,0.23-1.13v-2.27c0-0.45,0.04-0.75,0.11-0.91c0.07-0.15,0.11-0.53,0.11-1.13
		l0.23-0.68c0-0.3-0.04-0.49-0.11-0.57c-0.08-0.07-0.11-0.26-0.11-0.57c0-0.15,0.04-0.26,0.11-0.34c0.07-0.07,0.11-0.19,0.11-0.34
		l4.08-0.23c0.75,0,1.44,0,2.04,0c0.6,0,1.28,0.08,2.04,0.23l0.91,0.23h2.49c0.15,0,0.23,0.08,0.23,0.23h1.59l1.59,0.23h3.4
		l2.04,0.23l2.72,0.23h16.56l3.4-0.45h4.08h3.63l1.36-0.23c0.15-0.15,0.68-0.23,1.59-0.23v12.47c-0.76,0.3-1.36,0.68-1.81,1.13
		c-0.45,0.45-0.68,0.91-0.68,1.36l-0.23,0.68v1.36l-0.23,0.91l-0.23,1.13c0,1.36-0.08,2.65-0.23,3.86
		c-0.15,1.21-0.23,2.49-0.23,3.86c0,0.61,0.15,1.21,0.45,1.81v2.04l0.23,1.59l0.23,1.59v2.95l0.23,1.81v0.45v0.91
		c0,0.3,0.07,0.53,0.23,0.68l0.68,0.68c-0.15,0-0.23,0.08-0.23,0.23l-0.23,0.23c-0.15,0.76-0.27,1.4-0.34,1.93
		c-0.08,0.53-0.11,1.02-0.11,1.47v1.81c-0.3,0.61-0.45,1.13-0.45,1.59c0,0.15,0.04,0.27,0.11,0.34c0.07,0.08,0.11,0.19,0.11,0.34
		h0.23v2.95l0.23,0.91l0.23,0.91v1.59l0.23,0.68c0,0.3,0.15,0.99,0.45,2.04v0.45l0.23,0.91c0,1.21,0.34,2.19,1.02,2.95
		c0.68,0.76,1.47,1.13,2.38,1.13h0.68l0.68-0.23l0.23-0.23h0.68l0.23-0.23l0.23-0.23c0.15,0,0.26-0.04,0.34-0.11
		c0.07-0.07,0.19-0.11,0.34-0.11l0.45-0.23l0.68-0.23c0.15,0,0.26-0.04,0.34-0.11c0.07-0.07,0.19-0.11,0.34-0.11l0.23-0.23
		l0.23-0.23c0.3-0.3,0.53-0.45,0.68-0.45v-0.23c0.3,0,0.6,0.42,0.91,1.25c0.3,0.83,1.06,1.25,2.27,1.25h0.91
		c0.45-0.3,0.91-0.45,1.36-0.45h0.45h0.23l0.45,0.23l0.68,0.23l0.68-0.23h1.36l0.45-0.23l0.23-0.23h0.68l0.23-0.23
		c0.15-0.15,0.45-0.23,0.91-0.23l0.23-0.23l1.13-0.45c0.15-0.15,0.3-0.23,0.45-0.23l0.23-0.23l0.68-0.45
		c0.75-1.06,1.25-2.38,1.47-3.97c0.23-1.59,0.34-2.91,0.34-3.97h0.23v-1.81l0.23-1.59c0-0.3-0.04-0.57-0.11-0.79
		c-0.08-0.23-0.11-0.49-0.11-0.79c0-0.45,0.11-0.83,0.34-1.13c0.23-0.3,0.34-0.75,0.34-1.36c0-1.06-0.08-2.08-0.23-3.06
		c-0.15-0.98-0.23-2.08-0.23-3.29c0-0.3,0-0.87,0-1.7c0-0.83,0.15-1.55,0.45-2.15v-1.36l0.23-3.4v-3.63c0-0.15,0.08-0.23,0.23-0.23
		v-1.81v-1.81l0.23-1.36l0.23-1.59v-2.95l0.23-1.36l0.23-1.13c0-1.51-0.38-2.27-1.13-2.27c0-0.75,0-1.62,0-2.61
		c0-0.98,0.15-1.78,0.45-2.38V99.7v-0.91v-2.27v-4.31c0-0.3,0.04-0.53,0.11-0.68c0.07-0.15,0.11-0.45,0.11-0.91v-0.45
		c0-0.3,0.04-0.49,0.11-0.57c0.07-0.07,0.11-0.26,0.11-0.57c0-0.13-0.07-0.27-0.19-0.41c0.08-0.11,0.29-0.83,0.65-2.2
		c0.45-1.74,0.68-4.65,0.68-8.73c0-2.72-0.15-5.22-0.45-7.48V67.95z M307.01,35.29v0.23h-0.45c-0.15,0-0.23-0.07-0.23-0.23H307.01z
		 M340.35,69.08h-2.49c-0.61,0.3-1.51,0.38-2.72,0.23c-1.21-0.15-2.27-0.07-3.18,0.23l-1.59,0.23h-3.18
		c-0.61,0.15-1.25,0.23-1.93,0.23c-0.68,0-1.33,0-1.93,0h-6.58h-2.27c-0.91,0-1.85,0-2.83,0c-0.99,0-2.08,0.08-3.29,0.23h-1.13
		c-1.21,0-1.97,0.08-2.27,0.23h-1.59l-1.13,0.23l-1.13,0.23h-2.27c-0.15,0.15-0.83,0.23-2.04,0.23c0-0.75,0.04-1.55,0.11-2.38
		c0.07-0.83,0.11-1.55,0.11-2.15v-2.72c0-0.3-0.04-0.57-0.11-0.79c-0.08-0.23-0.11-0.49-0.11-0.79c0-0.3,0.04-0.49,0.11-0.57
		c0.07-0.07,0.11-0.19,0.11-0.34h0.23c0-0.3,0-0.72,0-1.25c0-0.53-0.08-0.87-0.23-1.02v-2.04l-0.23-1.13v-1.81l-0.23-0.45
		l-0.23-0.68v-0.91l-0.23-0.23l-0.23-0.45l-0.23-0.91c0-0.3-0.08-0.53-0.23-0.68c-0.15-0.15-0.23-0.6-0.23-1.36v-0.23l-0.23-0.23
		c-0.91-0.3-1.29-0.45-1.13-0.45v-1.81l1.81-0.68l0.23-0.23c0.15-0.15,0.53-0.23,1.13-0.23h0.23l0.23-0.23l0.68-0.23h0.45l0.23-0.23
		l0.45-0.23l0.45-0.23h0.45l0.23-0.23c0.15-0.15,0.38-0.23,0.68-0.23l0.45-0.23l0.23-0.23h0.45l0.45-0.23h0.23
		c0.45,0,0.75,0.08,0.91,0.23h1.81l0.91,0.23c1.21,0,1.96,0.08,2.27,0.23l1.36,0.23h4.99h6.8c0.3-0.15,0.68-0.19,1.13-0.11
		c0.45,0.08,0.83,0.04,1.13-0.11h2.72l1.13-0.23c0.6-0.3,1.25-0.45,1.93-0.45c0.68,0,1.4-0.07,2.15-0.23c0.75,0,1.28,0.08,1.59,0.23
		h1.59l2.49,0.23c0.3,0,0.57,0.04,0.79,0.11c0.23,0.08,0.49,0.11,0.79,0.11c0.6,0,1.17-0.04,1.7-0.11c0.53-0.07,1.09-0.11,1.7-0.11
		l-0.45,11.34v5.67c0.15,0.45,0.23,1.21,0.23,2.27v1.13c0.3,0.45,0.45,0.95,0.45,1.47c0,0.53,0.07,1.02,0.23,1.47v0.68
		c0.3,1.36,0.45,2.19,0.45,2.49H340.35z M346.93,84.05v-0.23l0.45,0.23H346.93z M352.37,28.72l-1.36,0.23
		c0-0.15,0.04-0.23,0.11-0.23c0.07,0,0.11-0.07,0.11-0.23c0.3,0,0.64,0.04,1.02,0.11c0.38,0.08,0.72,0.11,1.02,0.11H352.37z"/>
	<path d="M625.87,155.94c-0.15-0.6-0.83-0.91-2.04-0.91v-0.91v-0.68v-0.23c-0.15,0-0.23-0.07-0.23-0.23v-0.23l-0.23-0.45
		c0.6-2.27,0.91-5.14,0.91-8.62c0-0.6,0-1.25,0-1.93c0-0.68-0.08-1.25-0.23-1.7v-1.13l-0.23-2.5v-2.27l-0.23-1.13l-0.23-1.13v-1.81
		l-0.23-0.91c-0.3-0.75-0.42-1.55-0.34-2.38c0.07-0.83-0.04-1.62-0.34-2.38v-0.91l-0.23-1.13v-2.49l-0.23-1.81l-0.23-2.95v-9.3
		l-0.23-1.36v-3.4l0.23-0.91v-2.27l0.23-1.13l0.23-1.13v-2.04l0.23-1.36l0.23-0.91v-2.49l0.23-2.49l0.23-1.36l0.23-1.36v-2.95
		l0.23-1.59l0.23-1.59v-4.08c0.15-0.3,0.23-0.83,0.23-1.59c0-0.75,0-1.36,0-1.81v-2.27v-0.68l0.23-2.95
		c-0.15-1.66-0.27-3.29-0.34-4.88c-0.08-1.59-0.11-3.21-0.11-4.88c0-0.3,0.04-0.57,0.11-0.79c0.07-0.23,0.11-0.49,0.11-0.79h-0.23
		v-2.27v-0.45v-0.91l0.23-0.91l0.23-0.91v-2.27l0.23-1.59v-1.13c0-5.9-0.83-10.81-2.5-14.74v-0.23c0-0.15-0.04-0.23-0.11-0.23
		c-0.08,0-0.11-0.07-0.11-0.23v-0.23l-0.23-0.23c0-0.75-0.23-1.13-0.68-1.13l-0.23-0.68c-0.15-0.15-0.45-0.34-0.91-0.57
		c-0.45-0.23-0.91-0.34-1.36-0.34h-0.23l-0.68,0.23l-0.45,0.23l-0.68,0.23c0.15,0,0,0.04-0.45,0.11c-0.45,0.08-0.68,0.27-0.68,0.57
		h-0.23h-0.23c-0.15,0-0.3-0.04-0.45-0.11c-0.15-0.07-0.3-0.11-0.45-0.11h-4.31l-2.04,0.68c-0.3-0.75-0.61-1.13-0.91-1.13
		l-0.23-0.23h-1.59c-0.3,0-0.53,0.04-0.68,0.11c-0.15,0.08-0.38,0.11-0.68,0.11l-0.45,0.23h-0.68l-0.23,0.23l-0.45,0.23l-0.45,0.23
		c-0.76,0.45-1.13,0.83-1.13,1.13l-0.23,3.4c-0.15,0.15-0.27,0.19-0.34,0.11c-0.08-0.07-0.19-0.04-0.34,0.11h-0.23
		c-0.91,0.3-1.36,1.44-1.36,3.4v5.22c0,1.06-0.08,1.81-0.23,2.27v17.92c0.15,0.76,0.23,1.51,0.23,2.27c0,0.76,0,1.51,0,2.27
		c0,0.3-0.04,0.68-0.11,1.13c-0.08,0.45-0.11,0.83-0.11,1.13c0,0.15,0.04,0.3,0.11,0.45c0.07,0.15,0.11,0.3,0.11,0.45v0.91
		c0,0.61,0,1.25,0,1.93c0,0.68,0.07,1.25,0.23,1.7v4.76c0,0.45,0,0.95,0,1.47c0,0.53,0.07,0.95,0.23,1.25v3.4l0.23,3.18v6.12
		l0.23,2.72l0.23,2.95l0.68,21.54v0.91v2.04v0.68l0.23,4.08c0.15,1.67,0.15,3.25,0,4.76c-0.15,1.51-0.08,3.1,0.23,4.76
		c-0.91,0-1.44-0.07-1.59-0.23h-1.81l-0.91-0.23l-0.91-0.23c-0.76,0-1.44-0.04-2.04-0.11c-0.61-0.07-1.29-0.11-2.04-0.11h-1.81
		c-0.3-0.15-0.87-0.23-1.7-0.23c-0.83,0-1.55,0-2.16,0h-2.49h-9.07c-0.45,0.15-1.13,0.19-2.04,0.11c-0.91-0.07-1.67,0.04-2.27,0.34
		h-1.13c-1.36,0-2.27,0.08-2.72,0.23h-1.36l-0.91,0.23l-1.36,0.23h-2.04l-0.91,0.23h-2.04l-0.91,0.23l-0.91,0.23h-1.81
		c-0.45,0.31-1.29,0.45-2.5,0.45c-0.76,0-1.29-0.15-1.59-0.45c-0.3-0.3-0.49-0.68-0.57-1.13c-0.08-0.45-0.11-0.98-0.11-1.59
		c0-0.6-0.08-1.13-0.23-1.59l-0.23-0.91v-1.81l-0.23-2.04c-0.3-0.75-0.42-1.59-0.34-2.49c0.07-0.91-0.04-1.74-0.34-2.49l-0.23-2.27
		v-2.49l-0.23-1.59l-0.23-1.36v-3.86c-0.15-0.45-0.23-0.98-0.23-1.59c0-0.6,0-1.21,0-1.81v-6.8c0-2.12,0-4.31,0-6.58
		c0-2.27-0.3-4.31-0.91-6.12v-0.45c0-0.15-0.04-0.3-0.11-0.45c-0.08-0.15-0.11-0.3-0.11-0.45v-0.45l-0.23-0.23l-0.23-0.45
		c0-0.45-0.08-0.75-0.23-0.91c0-0.15,0.11-0.3,0.34-0.45c0.23-0.15,0.34-0.38,0.34-0.68h0.23c0.15,0,0.23-0.04,0.23-0.11
		c0-0.07,0.07-0.11,0.23-0.11v-0.23l0.23-0.45l0.23-0.45c0.15-2.27,0.26-4.57,0.34-6.92c0.07-2.34,0.11-4.65,0.11-6.92V54.12
		l-0.23-0.68V51.4v-0.91l-0.23-2.72v-4.08l-0.23-1.81c0-0.91-0.11-1.78-0.34-2.61c-0.23-0.83-0.34-1.62-0.34-2.38
		c0-1.06,0.3-2.34,0.91-3.86v-0.68v-0.68c0,0.15-0.34-0.41-1.02-1.7c-0.68-1.28-1.1-2-1.25-2.15h-0.23c0-0.15-0.04-0.23-0.11-0.23
		c-0.08,0-0.11-0.07-0.11-0.23h-0.23c-0.11,0-0.18,0-0.23,0c0.15,0,0.07-0.15-0.23-0.45l-0.23-0.23l-0.23-0.23v-0.45l-0.23-0.23
		l-0.23-0.23l-0.23-0.45c0-0.6-0.3-0.91-0.91-0.91h-0.45l-0.68-0.23c-0.15,0-0.27-0.04-0.34-0.11c-0.08-0.07-0.19-0.11-0.34-0.11
		c-0.15,0-0.38,0.15-0.68,0.45h-1.13l-0.23,0.23l-0.45,0.23l-0.45,0.23h-0.68l-0.23,0.23l-1.81,1.13h-0.45l-0.23-0.23l-0.45-0.23
		h-2.04l-0.45,0.23h-0.45c-0.3,0-0.49-0.04-0.57-0.11c-0.08-0.07-0.27-0.11-0.57-0.11c-0.91,0-1.44,0.08-1.59,0.23l-0.45-0.45h0.23
		c-0.15-0.3-0.3-0.49-0.45-0.57c-0.15-0.07-0.3-0.19-0.45-0.34h-0.45c-0.3-0.15-0.83-0.23-1.59-0.23c-0.76,0-1.63,0.27-2.61,0.79
		c-0.98,0.53-1.47,1.17-1.47,1.93v0.91v0.45v1.13l-0.23,0.68c-0.15,0.15-0.3,0.61-0.45,1.36c-0.15,0.76-0.23,1.36-0.23,1.81
		c0,1.06,0.45,1.81,1.36,2.27h0.23c-0.3,1.21-0.57,2.53-0.79,3.97c-0.23,1.44-0.34,3.89-0.34,7.37c0,0.3,0.15,0.76,0.45,1.36v2.04
		l0.23,1.36v2.72l0.23,1.36v2.27l0.23,3.63l-0.23,1.59V65c0,1.51,0.04,3.21,0.11,5.1c0.08,1.89-0.27,3.59-1.02,5.1l-0.23,1.59v1.81
		l-0.23,0.91l-0.23,1.36l-0.23,2.72v3.86v9.53c0.15,0.3,0.19,0.64,0.11,1.02c-0.08,0.38-0.04,0.72,0.11,1.02v1.13
		c0,1.21,0.07,2.04,0.23,2.49l0.23,1.59v2.95l0.23,1.13l0.23,1.36v2.49l0.23,1.36l0.23,1.36v2.5l0.23,1.13v2.72l0.23,0.23v1.13
		c0.15,0.3,0.23,0.99,0.23,2.04v9.3c0,1.21,0.04,2.04,0.11,2.49c0.07,0.45,0.11,0.83,0.11,1.13v1.59v0.68l0.23,2.04v2.95l0.23,0.23
		l0.23,0.23v3.17l0.23,1.59l0.23,1.81v7.03c0,0.3-0.04,0.61-0.11,0.91c-0.08,0.3-0.11,0.61-0.11,0.91c0,0.45,0.19,0.95,0.57,1.47
		c0.38,0.53,1.02,0.79,1.93,0.79c0.45,0,0.75-0.07,0.91-0.23h0.68c0.15,0,0.3-0.04,0.45-0.11c0.15-0.07,0.3-0.11,0.45-0.11h0.23
		l0.23-0.23l0.23-0.23l1.13-0.23h0.68l0.23-0.23h0.45c0.3,0,0.94,0.15,1.93,0.45c0.98,0.3,1.85,0.53,2.61,0.68h0.68l0.68,0.23
		l0.68,0.23h2.04l1.13,0.23c0.91,0,1.78,0.04,2.61,0.11c0.83,0.08,1.62,0.11,2.38,0.11h2.04c0.45,0.15,1.21,0.23,2.27,0.23
		l18.6-0.45h4.76l0.68-0.23c0.3,0,0.68,0.04,1.13,0.11c0.45,0.08,0.91,0.11,1.36,0.11c0.3,0,0.53-0.04,0.68-0.11
		c0.15-0.07,0.3-0.11,0.45-0.11l1.59-0.68c0.3-0.15,0.49-0.3,0.57-0.45c0.07-0.15,0.26-0.23,0.57-0.23h0.45l2.04,0.23l2.5,0.23h1.59
		h0.68h2.95l3.17,0.23c0.15,0,0.3,0.04,0.45,0.11c0.15,0.08,0.3,0.11,0.45,0.11c0.45,0,0.91-0.04,1.36-0.11
		c0.45-0.07,0.83-0.11,1.13-0.11h6.58c0.3,0,0.68,0.04,1.13,0.11c0.45,0.08,0.91,0.11,1.36,0.11c0.3,0,0.53-0.04,0.68-0.11
		c0.15-0.07,0.38-0.11,0.68-0.11l2.49-0.23h3.63l1.36-0.23l1.36-0.23c0.91,0,2.12-0.04,3.63-0.11c1.51-0.07,2.8-0.49,3.86-1.25h0.23
		l0.45-0.23c0.15,0,0.26-0.04,0.34-0.11c0.08-0.07,0.19-0.11,0.34-0.11l0.23-0.23c0.3-0.3,0.45-0.53,0.45-0.68l0.45-0.23l0.45-0.23
		l0.23-0.23l0.45-0.45l0.23-0.23l0.23-0.45c0-0.3-0.04-0.53-0.11-0.68C625.91,156.48,625.87,156.25,625.87,155.94z M604.55,145.06
		c0.15,0.15,0.53,0.23,1.13,0.23v0.23c-0.3,0-0.49-0.04-0.57-0.11c-0.08-0.07-0.27-0.11-0.57-0.11V145.06z M601.38,153.68
		c0.15,0.15,0.6,0.23,1.36,0.23c-0.15,0.15-0.68,0.23-1.59,0.23C601.3,154.13,601.38,153.98,601.38,153.68z M605.46,159.8
		c-1.06,0-2.19,0.08-3.4,0.23l-0.91-0.23c0.15-0.15,0.38-0.23,0.68-0.23h0.91h0.45h1.13l1.36-0.23c0.3-0.15,0.57-0.19,0.79-0.11
		c0.23,0.08,0.41,0.04,0.57-0.11h1.13l0.45,0.68C607.58,159.8,606.52,159.8,605.46,159.8z M611.59,31.21c0,0.45-0.04,0.95-0.11,1.47
		c-0.08,0.53-0.19,0.87-0.34,1.02v0.23h-0.23c-0.15-0.3-0.3-0.49-0.45-0.57c-0.15-0.07-0.3-0.19-0.45-0.34h-0.23
		c0-0.15,0.04-0.23,0.11-0.23c0.07,0,0.11-0.07,0.11-0.23l0.23-0.23l0.23-0.23l0.23-0.45l0.91-0.91V31.21z M616.35,51.4v1.36
		l-0.23,0.68c-0.15,0.3-0.23,0.91-0.23,1.81c-0.15-0.15-0.23-0.6-0.23-1.36c0-0.6,0-1.21,0-1.81c0-0.6,0.07-1.21,0.23-1.81h0.45
		V51.4z"/>
	<path d="M749.02,149.37l0.23-0.23l0.23-0.45c0-0.91-0.3-1.44-0.91-1.59v-0.23l-0.68-0.23c0-0.15,0.04-0.23,0.11-0.23
		c0.07,0,0.11-0.15,0.11-0.45v-0.23l-0.23-0.23c0-0.15-0.08-0.3-0.23-0.45c0.3-0.15,0.49-0.3,0.57-0.45
		c0.08-0.15,0.19-0.3,0.34-0.45c0-0.91-0.38-1.51-1.13-1.81v-0.23l0.23-0.45l0.45-0.45c0-0.15,0.04-0.26,0.11-0.34
		c0.08-0.07,0.11-0.19,0.11-0.34v-0.91l-0.45-0.45l0.23-0.23l0.23-0.45l0.23-0.23c0-0.91-0.3-1.44-0.91-1.59h-0.45
		c0-0.3-0.27-0.57-0.79-0.79c-0.53-0.23-1.1-0.34-1.7-0.34h-0.45v0.23h-0.91l-2.27,0.23l-0.45-0.23l-17.24-0.23
		c-1.21,0-2.46,0-3.74,0c-1.29,0-2.31,0.15-3.06,0.45l-5.22,0.23h-3.63c-0.61,0.3-1.13,0.45-1.59,0.45c-0.3,0-0.68-0.04-1.13-0.11
		c-0.45-0.07-0.91-0.11-1.36-0.11h-2.95l-0.23-0.23l-0.45-0.23l-0.45-0.23c-0.3-0.15-0.72-0.19-1.25-0.11
		c-0.53,0.08-0.95,0.04-1.25-0.11h-4.99l-1.59-0.23h-6.35c-0.61,0-0.99-0.07-1.13-0.23h-2.5v-0.68v-2.04v-0.68v-4.08v-7.03
		l-0.23-0.23v-2.72l-0.23-1.13l-0.23-0.91v-1.81l-0.23-1.13l-0.23-0.68l-0.23-0.68v-1.13l-0.23-0.45l-0.23-1.36v-2.95
		c-0.3-0.91-0.45-1.51-0.45-1.81c0-0.75,0.15-1.59,0.45-2.49v-0.91l0.23-0.91c0.15-0.15,0.19-0.3,0.11-0.45
		c-0.08-0.15-0.04-0.3,0.11-0.45v-1.36h5.67c0.3-0.15,0.98-0.23,2.04-0.23c0.6,0.15,1.28,0.23,2.04,0.23c0.75,0,1.51,0,2.27,0h2.95
		c0.6,0,1.21,0,1.81,0c0.6,0,1.13-0.07,1.59-0.23h2.27l1.81-0.23h2.49l0.91-0.23l1.13-0.23l2.27-0.23c0.3,0,0.53-0.04,0.68-0.11
		c0.15-0.07,0.38-0.11,0.68-0.11l3.4-0.68l0.68-0.23h0.68l0.45-0.23l0.23-0.23c0.3,0,0.53-0.07,0.68-0.23l0.23-0.23l0.91-0.68
		l0.23-0.91l0.91-0.68c0-0.15,0.07-0.3,0.23-0.45c0-0.3-0.57-0.87-1.7-1.7c-1.13-0.83-1.47-1.17-1.02-1.02
		c0.15-0.3,0.41-0.6,0.79-0.91c0.38-0.3,0.57-0.6,0.57-0.91c0-0.15-0.04-0.26-0.11-0.34c-0.08-0.07-0.11-0.19-0.11-0.34
		c0.6-0.15,1.28-0.6,2.04-1.36l0.23-0.45c0.15-0.15,0.23-0.38,0.23-0.68c0-0.3-0.45-1.09-1.36-2.38c-0.91-1.28-1.97-1.93-3.17-1.93
		c0.3,0,0.49-0.04,0.57-0.11c0.07-0.07,0.19-0.11,0.34-0.11l0.23-0.23c0.3,0,0.53-0.07,0.68-0.23l0.91-0.68l0.23-0.45l0.45-1.36
		c-0.15-0.15-0.23-0.3-0.23-0.45l-0.91-0.68l-0.23-0.23h-0.45H715h-0.45l-0.23-0.23c-0.76,0-1.47,0-2.15,0
		c-0.68,0-1.4-0.07-2.16-0.23v-0.68c-0.3,0-0.45-0.15-0.45-0.45l-0.68-0.23h-2.72l-2.72-0.23h-1.36h-2.49h-6.35l-0.68-0.23
		c-0.76,0-1.59,0-2.5,0c-0.91,0-1.74,0.08-2.5,0.23l-2.27-0.23h-2.49l-1.36-0.23l-1.59-0.23h-0.45h-1.13h-0.23h-0.45
		c0-0.3-0.04-0.49-0.11-0.57c-0.08-0.07-0.11-0.19-0.11-0.34c0-0.15,0.04-0.26,0.11-0.34c0.07-0.07,0.11-0.19,0.11-0.34l0.23-1.13
		v-2.04l0.23-1.81c0-0.3-0.04-0.57-0.11-0.79c-0.08-0.23-0.11-0.49-0.11-0.79c0-0.3,0.04-0.57,0.11-0.79
		c0.07-0.23,0.11-0.49,0.11-0.79v-2.04v-8.84c-0.15-0.45-0.23-1.28-0.23-2.49l0.23-0.23h2.72l1.36-0.23l1.36-0.23h4.31l1.36,0.23
		l1.81,0.23c0.3,0,0.75,0,1.36,0c0.6,0,1.06-0.07,1.36-0.23h1.36l0.68-0.23l0.68-0.23l0.91-0.23c0-0.15,0.08-0.3,0.23-0.45
		l0.45-0.23c0.75,0,1.44-0.04,2.04-0.11c0.6-0.07,1.28-0.11,2.04-0.11c0.15,0.76,0.57,1.29,1.25,1.59c0.68,0.3,1.4,0.45,2.15,0.45
		h1.36c0.3-0.15,0.72-0.19,1.25-0.11c0.53,0.08,1.02,0.04,1.47-0.11h2.72h0.68H715h7.26l5.9-0.23c0.3,0,0.72,0.04,1.25,0.11
		c0.53,0.08,1.02,0.11,1.47,0.11c0.3,0,0.53-0.04,0.68-0.11c0.15-0.07,0.3-0.11,0.45-0.11l2.95-0.23h0.68h1.59l1.13-0.23h0.68
		l0.23-0.23l0.68-0.23h1.36l1.13-0.23c1.21-0.45,2.49-0.87,3.85-1.25c1.36-0.38,2.04-1.17,2.04-2.38c0-0.15-0.04-0.26-0.11-0.34
		c-0.08-0.07-0.11-0.26-0.11-0.57l-0.23-0.45l-0.86-0.86c0.02-0.03,0.04-0.08,0.07-0.16c0.07-0.23,0.19-0.34,0.34-0.34l0.23-0.45
		l0.23-0.23c0-0.3-0.15-0.6-0.45-0.91v-0.23l0.91-0.91c0-0.45-0.23-0.68-0.68-0.68c0-0.15,0.04-0.23,0.11-0.23
		c0.07,0,0.11-0.07,0.11-0.23l0.23-0.45c0-0.3-0.15-0.45-0.45-0.45l0.23-0.91l0.68-0.91c0-0.15,0.04-0.3,0.11-0.45
		c0.07-0.15,0.11-0.3,0.11-0.45l0.23-0.23l0.23-0.23l0.45-0.45l-0.23-0.45c-0.15-0.15-0.76-0.23-1.81-0.23v-0.23
		c0-0.6-0.08-0.98-0.23-1.13h-0.45v-0.45l0.23-0.68l0.23-0.45c0-0.15-0.08-0.23-0.23-0.23l0.23-0.45v-0.45
		c0-0.15-0.15-0.53-0.45-1.13l-0.23-0.45l-0.23-0.23v-0.23c-0.15,0-0.3-0.07-0.45-0.23l-0.23-0.23l-0.68-0.68l-0.23-0.45l-1.13-0.68
		l-0.23-0.23h-0.68l-0.68-0.23h-0.68h-1.81h-3.4h-1.36v0.23h-2.04l-9.75,0.23c-0.91,0-1.44-0.07-1.59-0.23l-0.45-0.23l-0.23-0.23
		h-0.45l-3.63-0.23h-7.03c-1.36,0-2.72,0.04-4.08,0.11c-1.36,0.08-2.72,0.11-4.08,0.11v-0.23l-1.13-0.45l-2.27-0.23h-2.04
		l-0.23-0.23l-0.45-0.23h-8.17h-0.91h-2.27h-4.31h-8.39l-2.95,0.23l-2.72,0.23h-1.81l-0.91,0.23l-1.13,0.23
		c-0.45,0-0.91,0.04-1.36,0.11c-0.45,0.08-0.91,0.11-1.36,0.11v-0.45l-0.23-0.68l-0.68-0.23c-0.76,0-1.25,0.08-1.47,0.23
		c-0.23,0.15-0.57,0.23-1.02,0.23h-0.45l-0.23,0.23l-0.45,0.23l-0.68,0.23l-0.23,0.23l-0.68,0.23c-0.45,0-0.68,0.15-0.68,0.45
		c-1.21,1.21-2.08,1.93-2.61,2.15c-0.53,0.23-1.1,0.34-1.7,0.34h-0.23l-0.23,0.23c-0.91,0.61-1.36,0.99-1.36,1.13
		c0,0.15,0.07,0.34,0.23,0.57c0.15,0.23,0.15,0.61,0,1.13c-0.15,0.53-0.83,1.4-2.04,2.61v0.23l-0.23,0.23v0.45l-0.23,0.45
		l-0.23,0.23v0.68l-0.23,0.91c-0.76,2.12-1.13,4.92-1.13,8.39c0.15,0.76,0.23,1.47,0.23,2.15c0,0.68,0,1.4,0,2.15v1.13
		c0.15,0.61,0.23,1.33,0.23,2.15c0,0.83,0.38,1.25,1.13,1.25c0.3,0,0.53-0.04,0.68-0.11c0.15-0.07,0.38-0.11,0.68-0.11V74.3
		c0,0.15-0.04,0.31-0.11,0.45c-0.08,0.15-0.11,0.38-0.11,0.68c0,0.45,0.04,0.91,0.11,1.36c0.07,0.45,0.11,0.83,0.11,1.13v8.62
		c0,1.97-0.08,3.33-0.23,4.08c0,2.57,0,5.07,0,7.48c0,2.42,0.07,4.92,0.23,7.48c-0.3,2.57-0.49,4.76-0.57,6.58
		c-0.08,1.81-0.11,4.01-0.11,6.58c0,0.3,0.04,0.53,0.11,0.68c0.07,0.15,0.11,0.38,0.11,0.68v1.13c0,0.31-0.04,0.65-0.11,1.02
		c-0.08,0.38-0.11,0.72-0.11,1.02c0,0.3,0.15,0.76,0.45,1.36v2.27c0,1.21,0.07,1.97,0.23,2.27v1.13l0.23,1.13v3.18l0.23,1.13
		l0.45,3.86l0.23,0.68l0.23,0.68v1.13l0.23,0.45l0.23,0.68l-0.23,0.23l-0.23,0.23v0.91l-0.23,0.91c-0.31,0.91-0.45,1.74-0.45,2.49
		c0,0.76,0.11,1.51,0.34,2.27c0.23,0.76,0.34,1.36,0.34,1.81v1.13c0,0.76,0.38,1.13,1.13,1.13c0.3,0,0.64-0.04,1.02-0.11
		c0.38-0.07,0.72-0.11,1.02-0.11c0.15,0,0.26,0.19,0.34,0.57c0.08,0.38,0.34,0.57,0.79,0.57v0.91c0,0.3-0.3,0.76-0.91,1.36v0.23
		l-0.23,0.23l-0.23,0.23c0,1.36,0.45,2.08,1.36,2.15c0.91,0.08,1.89,0.34,2.95,0.79h1.81l1.13,0.23c0.75,0,1.55,0.08,2.38,0.23
		c0.83,0.15,1.93,0.23,3.29,0.23c0.3,0,0.49-0.04,0.57-0.11c0.07-0.07,0.19-0.11,0.34-0.11l3.63-0.23h0.68h1.36
		c2.72-0.45,6.35-0.68,10.89-0.68h1.59c0.3-0.15,0.72-0.19,1.25-0.11c0.53,0.08,0.94,0.04,1.25-0.11h4.76
		c0.3-0.15,0.75-0.23,1.36-0.23h1.81c0.3,0,0.64-0.04,1.02-0.11c0.38-0.07,0.72-0.11,1.02-0.11h1.36c0.3-0.15,0.68-0.19,1.13-0.11
		c0.45,0.08,0.83,0.04,1.13-0.11h5.67c0.45-0.15,1.06-0.23,1.81-0.23c0.75,0,1.43,0,2.04,0h5.22c0.75,0,1.44,0.08,2.04,0.23
		c0.6,0.15,1.06,0.23,1.36,0.23c0.3,0,0.57-0.04,0.79-0.11c0.23-0.07,0.49-0.11,0.79-0.11h1.59l1.59,0.23l1.13,0.23h0.45
		c0.75,0,1.59-0.15,2.49-0.45v-0.23c0.3,0,0.53-0.07,0.68-0.23c0.6,0,1.17,0.04,1.7,0.11c0.53,0.08,1.09,0.11,1.7,0.11l4.08-0.23
		h5.44h0.91l0.45,0.23c0.15,0.15,0.45,0.23,0.91,0.23c0.3,0,0.75-0.15,1.36-0.45l0.91-0.23h0.91l0.45-0.23l0.23-0.23h0.68l0.23-0.23
		c0.15-0.15,0.68-0.23,1.59-0.23v-0.23h0.23c0.3,0,0.45-0.15,0.45-0.45l0.45-0.23l0.23-0.23l0.45-0.45v-0.23
		c0.15,0,0.3-0.07,0.45-0.23v-0.45l0.23-1.13c-0.3-0.3-0.49-0.49-0.57-0.57c-0.08-0.07-0.34-0.19-0.79-0.34l0.45-0.91v-0.45
		c-0.15-0.45-0.68-0.83-1.59-1.13v-0.23C748.19,150.96,748.87,150.43,749.02,149.37z M676.22,40.74h-1.81l-0.91,0.23
		c-0.15,0.15-0.68,0.23-1.59,0.23v-0.68c1.51-0.3,2.83-0.45,3.97-0.45c1.13,0,2.83,0,5.1,0c-0.15,0.15-0.3,0.19-0.45,0.11
		c-0.15-0.07-0.38-0.04-0.68,0.11h-0.91v0.23h-1.81L676.22,40.74z"/>
	<path d="M509.35,161.82v-0.23v-0.45l-0.45-0.23c-0.15-0.15-0.23-0.3-0.23-0.45l0.23-0.23v-1.36l0.68-0.45
		c0.3-0.3,0.45-0.91,0.45-1.81l-0.68-0.91l-1.13-1.13l-0.23-0.23l-1.13-1.36c-0.3-0.15-0.49-0.31-0.57-0.45
		c-0.08-0.15-0.26-0.31-0.57-0.45l-0.91-1.13l-1.13-1.13l-0.91-1.13c-0.15-0.45-0.45-0.76-0.91-0.91v-0.23l-0.68-0.91
		c-0.45-0.31-1.66-1.09-1.66-1.39l-0.71-0.19c0.22-0.5,0.46-1.02,0.74-1.57c0.45-0.91,0.68-1.74,0.68-2.49v-0.68v-1.13
		c0-0.15-0.08-0.23-0.23-0.23v-2.72l-0.23-1.13l-0.23-1.13v-2.27l-0.23-1.13l-0.23-1.13v-2.27c-0.15-0.45-0.23-1.13-0.23-2.04h0.23
		v-5.9c0.15-0.15,0.23-0.57,0.23-1.25c0-0.68,0-1.17,0-1.47h-0.23v-1.59v-0.91l-0.23-1.13v-1.81l-0.23-0.45
		c0-0.15-0.04-0.38-0.11-0.68c-0.08-0.3-0.11-0.53-0.11-0.68l0.23-0.45l0.23-0.68l0.23-0.68v-1.59l0.23-0.91
		c0.15-0.45,0.23-1.66,0.23-3.63h0.45V96.3v-4.54l-0.23-0.68v-2.04c0-0.3,0-0.83,0-1.59c0-0.75-0.08-1.36-0.23-1.81v-1.13
		l-0.23-2.49v-3.4l-0.23-1.59l-0.23-1.59c0.15-0.15,0.23-0.68,0.23-1.59V52.98c0.15-0.91,0.23-1.85,0.23-2.83c0-0.98,0-2,0-3.06
		c0-0.45,0-0.94,0-1.47c0-0.53-0.08-0.94-0.23-1.25V42.1l-0.23-1.59v-4.54l0.23-4.76v-1.13v-0.45c0-0.3,0.04-0.64,0.11-1.02
		c0.07-0.38,0.11-0.72,0.11-1.02c0-0.75-0.15-1.13-0.45-1.13c-0.31,0-0.61-0.15-0.91-0.45v-1.59c-0.3-0.45-0.91-0.68-1.81-0.68
		c-0.45,0-0.83,0.04-1.13,0.11c-0.3,0.08-0.83,0.19-1.59,0.34h-0.23l-0.45,0.23l-0.23,0.23h-0.45l-0.23,0.23
		c-0.15,0-0.23,0.08-0.23,0.23c-0.3-0.6-0.95-0.98-1.93-1.13c-0.99-0.15-2.08-0.23-3.29-0.23c-1.36,0-2.38,0.04-3.06,0.11
		c-0.68,0.08-1.55,0.11-2.61,0.11l-1.13-0.23h-1.59l-1.59-0.23c-0.3,0-0.61,0.04-0.91,0.11c-0.3,0.08-0.61,0.11-0.91,0.11
		c-0.15,0-0.27-0.04-0.34-0.11c-0.08-0.07-0.19-0.11-0.34-0.11l-5.9-0.23c-0.15,0.15-0.61,0.23-1.36,0.23l-0.68-0.23
		c-0.61-0.15-1.21-0.23-1.81-0.23c-0.61,0-1.29-0.15-2.04-0.45h-0.91l-0.91-0.23h-2.49l-1.36-0.23h-0.68h-2.04
		c-0.76,0-1.29-0.07-1.59-0.23h-8.17c-1.06,0-1.81,0.08-2.27,0.23h-3.17c-1.36,0-2.72,0.04-4.08,0.11c-1.36,0.08-2.8,0.11-4.31,0.11
		v0.23h-4.08l-0.23,0.23h-4.54l-1.13,0.23l-2.27,0.23h-3.17l-1.36,0.23l-0.68,0.23h-0.91l-0.23,0.23c-0.15,0.15-0.38,0.23-0.68,0.23
		v0.23h-0.45c-0.61,0-1.02-0.04-1.25-0.11c-0.23-0.07-0.49-0.11-0.79-0.11c-0.45,0-0.91,0.04-1.36,0.11
		c-0.45,0.08-0.83,0.11-1.13,0.11c0-0.3-0.08-0.53-0.23-0.68h-0.23l-0.23-0.23c-0.61,0-0.99-0.07-1.13-0.23h-1.36l-0.91,0.23
		c-1.06,0.76-1.78,1.36-2.15,1.81c-0.38,0.45-0.61,0.87-0.68,1.25c-0.08,0.38-0.11,0.68-0.11,0.91c0,0.23-0.15,0.49-0.45,0.79v1.81
		c-0.15,0.3-0.23,0.87-0.23,1.7c0,0.83,0,1.4,0,1.7h0.23v4.31c0,0.3,0.04,0.49,0.11,0.57c0.07,0.08,0.11,0.27,0.11,0.57v0.68
		l0.23,0.45l0.23,0.68v0.91l0.23,0.23l0.23,0.45V43l0.23,1.13c0,0.76-0.04,1.36-0.11,1.81c-0.08,0.45-0.19,0.91-0.34,1.36
		l-0.23,2.04v9.75c0.15,0.76,0.19,1.51,0.11,2.27c-0.08,0.76-0.04,1.44,0.11,2.04v2.27l0.23,2.72v1.13v2.72
		c0,0.91,0.07,1.51,0.23,1.81l-0.68,2.72v1.59l-0.23,0.68c0,0.3-0.04,0.61-0.11,0.91c-0.08,0.3-0.11,0.61-0.11,0.91v0.91l-0.23,0.91
		l-0.23,0.91v2.27L397.95,87l-0.23,1.36v2.95l-0.23,1.81c-0.15,0.3-0.19,0.64-0.11,1.02c0.07,0.38,0.04,0.72-0.11,1.02v7.71
		c-0.3,0.61-0.45,1.29-0.45,2.04c0,0.45,0.04,0.95,0.11,1.47c0.08,0.53,0.11,1.02,0.11,1.47v1.81c0,0.15-0.04,0.3-0.11,0.45
		c-0.08,0.15-0.11,0.38-0.11,0.68c0,0.45,0.04,0.91,0.11,1.36c0.08,0.45,0.11,0.83,0.11,1.13l-0.23,1.13v5.22v13.15
		c0,0.3-0.04,0.61-0.11,0.91c-0.08,0.3-0.11,0.61-0.11,0.91c0,0.15,0.04,0.27,0.11,0.34c0.07,0.08,0.11,0.19,0.11,0.34v2.95
		l0.23,1.13l0.23,1.59v2.95l0.23,1.13v0.68c0,1.51-0.11,2.53-0.34,3.06c-0.23,0.53-0.34,1.17-0.34,1.93v1.13v3.86l0.23,0.91
		l0.23,0.91l0.23,1.36v0.91l0.23,0.23c0.15,0.15,0.23,0.45,0.23,0.91v0.23c0.15,0,0.3,0.08,0.45,0.23l0.23,0.23
		c0,0.15,0.07,0.3,0.23,0.45h0.45l1.59,0.23v0.68l0.91,0.68h1.13c0.15,0.15,0.45,0.23,0.91,0.23c0.6,0,1.21-0.11,1.81-0.34
		c0.6-0.23,1.06-0.49,1.36-0.79l0.68-0.68c0.15-0.15,0.3-0.34,0.45-0.57c0.15-0.23,0.45-0.57,0.91-1.02c0,0.3,0.07,0.45,0.23,0.45
		c0.15,0,0.3,0.08,0.45,0.23h0.23c-1.06,0.3-1.59,0.91-1.59,1.81c0.15,0,0.3,0.08,0.45,0.23h0.23h5.22l2.72-0.23
		c0.3-0.15,0.68-0.19,1.13-0.11c0.45,0.08,0.83,0.04,1.13-0.11h3.4c0.45-0.15,1.36-0.23,2.72-0.23l1.81-0.23h2.72
		c1.06,0,2.04-0.07,2.95-0.23c0.91-0.15,1.74-0.23,2.5-0.23l1.59-0.23h2.95l1.13-0.23h1.59l1.36-0.23c0.45,0,0.91-0.04,1.36-0.11
		c0.45-0.07,0.91-0.11,1.36-0.11l1.36-0.23h2.72c0.91-0.3,1.66-0.45,2.27-0.45c0.45,0,0.94,0.04,1.47,0.11
		c0.53,0.08,1.02,0.11,1.47,0.11h3.86l1.36-0.23l2.27-0.23h2.04l0.91-0.23c0.91-0.3,1.81-0.45,2.72-0.45c0.75,0,1.47,0.04,2.15,0.11
		c0.68,0.08,1.4,0.11,2.16,0.11c0.45,0,0.91-0.04,1.36-0.11c0.45-0.07,0.91-0.11,1.36-0.11c0.45,0,0.98,0.15,1.59,0.45h2.27
		l1.13,0.23h2.5l1.36,0.23l0.23,0.23c0,0.3,0.07,0.45,0.23,0.45v0.23c0.15,0,0.38,0.04,0.68,0.11c0.3,0.08,0.6,0.11,0.91,0.11
		c0.15,0,0.3-0.04,0.45-0.11c0.15-0.07,0.3-0.11,0.45-0.11h0.04v0.43l0.23,0.23c0,0.15,0.08,0.23,0.23,0.23l0.23,0.23h0.23v0.23
		c0,0.3,0.15,0.45,0.45,0.45l0.68,0.91l1.81,1.81c0,0.3,0.15,0.45,0.45,0.45l0.23,0.23h0.45l0.45,0.23
		c0.15,0.15,0.38,0.23,0.68,0.23l0.23,0.23c0.91,0.3,1.89,0.45,2.95,0.45c0.45,0,0.87-0.04,1.25-0.11c0.38-0.08,0.95-0.11,1.7-0.11
		c0.61,0,1.02,0.07,1.25,0.23c0.23,0.15,0.57,0.23,1.02,0.23c0.45,0,0.91-0.04,1.36-0.11c0.45-0.08,0.83-0.11,1.13-0.11l0.23-0.23
		l0.45-0.23v-0.23h0.45l1.13-0.23c0.15-0.15,0.76-0.38,1.81-0.68l0.23-0.23l0.23-0.23c0.15,0,0.23-0.08,0.23-0.23
		c0-0.15,0.15-0.23,0.45-0.23v-0.23c0.15-0.15,0.23-0.3,0.23-0.45c0-0.76-0.11-1.29-0.34-1.59
		C509.91,162.42,509.65,162.12,509.35,161.82z M428.8,43.68h1.13v-0.23h1.36l2.27-0.23h2.95c1.06,0,1.74-0.07,2.04-0.23l2.04-0.23
		h5.9l3.63-0.23l3.4-0.23c0.3,0,0.57,0.04,0.79,0.11c0.23,0.08,0.49,0.11,0.79,0.11c0.15,0,0.26-0.04,0.34-0.11
		c0.07-0.07,0.19-0.11,0.34-0.11h3.17c0.3-0.3,0.98-0.38,2.04-0.23c1.06,0.15,1.74,0.08,2.04-0.23h2.27l1.36,0.23l1.81,0.23
		c0.3,0,0.57-0.04,0.79-0.11c0.23-0.07,0.49-0.11,0.79-0.11c0.3,0,0.53,0.08,0.68,0.23h5.9l-0.45,0.45h-3.17l-5.67-0.23
		c-1.67,0-2.72-0.07-3.17-0.23l-5.44,0.23c-0.15,0-0.27,0.04-0.34,0.11c-0.08,0.08-0.19,0.11-0.34,0.11c-0.3,0-0.57-0.04-0.79-0.11
		c-0.23-0.07-0.49-0.11-0.79-0.11h-0.23l-2.27,0.23L452.16,43h-2.95c-0.91,0.3-1.59,0.45-2.04,0.45c-0.45,0-0.91-0.04-1.36-0.11
		c-0.45-0.07-0.91-0.11-1.36-0.11h-2.27c-0.15,0-0.3,0.04-0.45,0.11c-0.15,0.08-0.38,0.11-0.68,0.11c-0.3,0-0.64-0.04-1.02-0.11
		c-0.38-0.07-0.72-0.11-1.02-0.11h-1.13l-2.04,0.23l-1.59,0.23h-2.49l-1.13,0.23c-0.3,0-0.65-0.04-1.02-0.11
		c-0.38-0.07-0.72-0.11-1.02-0.11H428.8z M428.8,140.52h-0.45l-0.45,0.23c-0.15,0.15-0.53,0.23-1.13,0.23v0.23l-0.91,0.23
		c-0.45,0-0.76,0.08-0.91,0.23l-0.45,0.23h-0.68l-0.23,0.23l-0.45,0.23h-0.68l-0.23,0.23c-0.3,0-0.53,0.08-0.68,0.23v-3.17
		c1.36,0,2.68,0.11,3.97,0.34c1.28,0.23,2.61,0.34,3.97,0.34C429.32,140.45,429.1,140.52,428.8,140.52z M469.62,143.02h-3.4
		c-0.61,0-1.25,0-1.93,0c-0.68,0-1.25,0.08-1.7,0.23H461c-1.67,0-2.72,0.08-3.17,0.23h-2.95c-0.61,0.3-1.36,0.45-2.27,0.45
		c-0.45,0-0.83-0.07-1.13-0.23c-0.3-0.15-0.76-0.23-1.36-0.23h-2.27h-0.45h-2.04l-2.27-0.23l-1.13-0.23h-3.63l-2.95-0.23
		c0.3-0.3,0.53-0.45,0.68-0.45c0,0.15,0.08,0.23,0.23,0.23h0.45l0.68-0.23c0.45-0.15,0.98-0.23,1.59-0.23c0.6,0,1.21-0.15,1.81-0.45
		h1.59c0.3-0.15,0.91-0.23,1.81-0.23h0.68h1.36l1.59,0.23l1.59,0.23h1.36l1.36,0.23c1.21,0,2.38,0,3.51,0c1.13,0,2.3,0.15,3.52,0.45
		h1.13h6.12c0.45-0.15,1.44-0.23,2.95-0.23c0,0.3,0.08,0.45,0.23,0.45V143.02z M474.38,118.07l-0.23-0.23h-0.23v-0.23
		c0-0.3-0.15-0.45-0.45-0.45l-0.68-0.91l-1.81-1.81c0-0.3-0.15-0.45-0.45-0.45l-0.23-0.23h-0.45l-0.45-0.23
		c-0.15-0.15-0.38-0.23-0.68-0.23l-0.23-0.23c-0.91-0.3-1.89-0.45-2.95-0.45c-0.45,0-0.87,0.04-1.25,0.11
		c-0.38,0.08-0.95,0.11-1.7,0.11c-0.61,0-1.02-0.07-1.25-0.23c-0.23-0.15-0.57-0.23-1.02-0.23c-0.45,0-0.91,0.04-1.36,0.11
		c-0.45,0.08-0.83,0.11-1.13,0.11l-0.23,0.23l-0.45,0.23v0.23h-0.45l-1.13,0.23c-0.15,0.15-0.76,0.38-1.81,0.68l-0.23,0.23
		l-0.23,0.23c-0.15,0-0.23,0.08-0.23,0.23c0,0.15-0.15,0.23-0.45,0.23v0.23c-0.15,0.15-0.23,0.3-0.23,0.45
		c0,0.76,0.11,1.29,0.34,1.59c0.23,0.3,0.49,0.61,0.79,0.91v0.23v0.45l0.45,0.23c0.15,0.15,0.23,0.3,0.23,0.45l-0.23,0.23v1.36
		l-0.68,0.45c-0.3,0.3-0.45,0.91-0.45,1.81l0.68,0.91l1.13,1.13l0.23,0.23l1.13,1.36c0.3,0.15,0.49,0.31,0.57,0.45
		c0.08,0.15,0.26,0.31,0.57,0.45l0.91,1.13l1.13,1.13l0.91,1.13c0.15,0.45,0.45,0.76,0.91,0.91v0.23l0.68,0.91
		c0.45,0.31,0.68,0.61,0.68,0.91h0.23c-0.91,0.3-1.78,0.49-2.61,0.57c-0.83,0.08-1.63,0.19-2.38,0.34l-0.68,0.23
		c-1.21,0.3-1.97,0.45-2.27,0.45h-2.27l-1.59-0.23l-2.27-0.23h-12.02c-0.45-0.15-0.99-0.23-1.59-0.23c-0.61,0-1.13,0-1.59,0h-4.99
		h-0.91h-2.04c-0.76-0.15-2.04-0.23-3.85-0.23v-6.8c0.15-0.75,0.19-1.47,0.11-2.15c-0.08-0.68-0.04-1.32,0.11-1.93v-3.17l0.23-2.27
		v-2.72c0.15-0.3,0.19-0.72,0.11-1.25c-0.08-0.53-0.04-0.94,0.11-1.25v-10.21c0-0.45-0.08-0.75-0.23-0.91v-2.49v-1.13V87v-0.68
		v-1.36h0.23v-2.95c0.15-0.3,0.23-1.06,0.23-2.27v-1.36l0.23-1.59l0.23-1.59v-3.4l0.23-2.04v-0.91v-2.04c0-0.6,0.04-1.13,0.11-1.59
		c0.07-0.45,0.11-0.98,0.11-1.59l-0.23-1.36c0-1.96,0.04-3.93,0.11-5.9c0.07-1.96,0.11-3.93,0.11-5.9
		c-0.15-0.45-0.23-0.94-0.23-1.47c0-0.53,0-1.02,0-1.47c1.21,0,1.96-0.07,2.27-0.23c0.15,0.3,0.3,0.45,0.45,0.45
		c0.15,0,0.3,0.08,0.45,0.23l0.23,0.23h2.72l1.81,0.23l2.04,0.23h0.45h1.59h0.45h3.17l4.99,0.23c0.15,0,0.26,0.04,0.34,0.11
		c0.07,0.08,0.19,0.11,0.34,0.11c0.3,0,0.64-0.04,1.02-0.11c0.38-0.07,0.72-0.11,1.02-0.11h7.71c0.6,0.3,1.21,0.45,1.81,0.45
		c0.6,0,1.17-0.04,1.7-0.11c0.53-0.07,1.02-0.11,1.47-0.11h1.59c0.6,0,1.17,0,1.7,0c0.53,0,1.17,0.08,1.93,0.23h1.36
		c1.81,0,2.95,0.08,3.4,0.23h3.4l3.4,0.23v2.04l0.23,1.81l0.23,1.81v2.95c0,1.36,0.07,2.27,0.23,2.72l0.23,1.81v3.86
		c0.15,0.45,0.23,0.99,0.23,1.59c0,0.61,0,1.13,0,1.59v14.06c0,0.45-0.04,0.91-0.11,1.36c-0.08,0.45-0.11,0.91-0.11,1.36
		c0,0.61,0.15,1.21,0.45,1.81v8.16l0.23,3.4l0.23,3.18c0,0.45-0.08,0.91-0.23,1.36c-0.15,0.45-0.23,0.98-0.23,1.59
		c0,0.3,0.04,0.57,0.11,0.79c0.07,0.23,0.11,0.49,0.11,0.79c-0.15,1.36-0.23,2.72-0.23,4.08c0,1.36,0,2.72,0,4.08v3.17
		c0,0.15-0.04,0.27-0.11,0.34c-0.08,0.08-0.11,0.27-0.11,0.57l0.23,0.23v1.59c-0.15,0-0.23-0.07-0.23-0.23l-0.23-0.45l-0.23-0.23
		v-0.23l-0.23-0.23c-0.15-0.15-0.3-0.23-0.45-0.23v-0.23l-0.23-0.45c-0.15,0-0.23-0.04-0.23-0.11c0-0.07-0.08-0.11-0.23-0.11v-0.23
		l-0.45-0.23v-0.45l-0.23-0.23C474.61,118.15,474.53,118.07,474.38,118.07z M476.42,143.02h-0.91v0.23l-0.91-0.23
		c0.91-0.3,1.43-0.79,1.59-1.47c0.15-0.68,0.75-1.02,1.81-1.02c0.15,0.3,0.23,1.06,0.23,2.27
		C477.48,142.79,476.88,142.87,476.42,143.02z M489.35,97.66v-2.27l0.23-4.31c0.15,0.15,0.23,0.53,0.23,1.13c0,0.61,0,1.06,0,1.36
		v6.8l-0.23,0.68v-1.13c-0.3-0.3-0.45-1.06-0.45-2.27H489.35z M485.95,152.66c0.15-0.07,0.3-0.11,0.45-0.11l0.68-0.23l0.23-0.23
		l0.45-0.23l0.45-0.23l0.45,1.36h-0.23l-2.95-0.23C485.64,152.77,485.79,152.73,485.95,152.66z"/>
</g>
</svg>
